<svg width="549" height="329" viewBox="0 0 549 329" fill="none" xmlns="http://www.w3.org/2000/svg">
<path d="M156.031 120.031C156.031 126.719 156.754 132.142 158.018 136.119C159.463 140.096 161.269 144.435 163.797 149.135C164.7 150.581 165.061 152.027 165.061 153.292C165.061 155.1 163.978 156.908 161.63 158.715L150.253 166.308C148.627 167.392 147.002 167.935 145.557 167.935C143.751 167.935 141.945 167.031 140.139 165.404C137.611 162.692 135.444 159.8 133.638 156.908C131.832 153.835 130.026 150.4 128.04 146.242C113.954 162.873 96.2555 171.188 74.9456 171.188C59.7759 171.188 47.6762 166.85 38.8272 158.173C29.9782 149.496 25.4634 137.927 25.4634 123.465C25.4634 108.1 30.8811 95.6269 41.8973 86.2269C52.9134 76.8269 67.5413 72.1269 86.1423 72.1269C92.2825 72.1269 98.6032 72.6692 105.285 73.573C111.967 74.4769 118.83 75.923 126.053 77.5499V64.3538C126.053 50.6153 123.164 41.0346 117.565 35.4307C111.786 29.8269 102.034 27.1153 88.1288 27.1153C81.8081 27.1153 75.3068 27.8384 68.6249 29.4653C61.943 31.0922 55.4417 33.0807 49.1209 35.6115C46.2315 36.8769 44.0644 37.5999 42.8002 37.9615C41.5361 38.323 40.6331 38.5038 39.9107 38.5038C37.3825 38.5038 36.1183 36.6961 36.1183 32.8999V24.0422C36.1183 21.1499 36.4795 18.9807 37.3825 17.7153C38.2854 16.4499 39.9107 15.1846 42.439 13.9192C48.7598 10.6653 56.3446 7.95379 65.1936 5.78456C74.0427 3.43456 83.4334 2.34994 93.366 2.34994C114.856 2.34994 130.568 7.23071 140.681 16.9922C150.614 26.7538 155.67 41.5769 155.67 61.4615V120.031H156.031ZM82.7111 147.508C88.6706 147.508 94.8107 146.423 101.312 144.254C107.813 142.085 113.592 138.108 118.468 132.685C121.358 129.25 123.525 125.454 124.608 121.115C125.692 116.777 126.414 111.535 126.414 105.388V97.7961C121.177 96.5307 115.579 95.4461 109.8 94.723C104.021 93.9999 98.4226 93.6384 92.8242 93.6384C80.7246 93.6384 71.8755 95.9884 65.916 100.869C59.9565 105.75 57.067 112.619 57.067 121.658C57.067 130.154 59.2341 136.481 63.7489 140.819C68.0831 145.338 74.4038 147.508 82.7111 147.508ZM227.727 167.031C224.476 167.031 222.309 166.488 220.864 165.223C219.419 164.138 218.155 161.608 217.072 158.173L174.632 18.4384C173.549 14.823 173.007 12.473 173.007 11.2076C173.007 8.31533 174.452 6.6884 177.341 6.6884H195.039C198.471 6.6884 200.818 7.23071 202.082 8.4961C203.527 9.58071 204.611 12.1115 205.694 15.5461L236.034 135.215L264.206 15.5461C265.109 11.9307 266.193 9.58071 267.637 8.4961C269.082 7.41148 271.61 6.6884 274.861 6.6884H289.308C292.74 6.6884 295.087 7.23071 296.532 8.4961C297.977 9.58071 299.241 12.1115 299.963 15.5461L328.497 136.661L359.739 15.5461C360.823 11.9307 362.087 9.58071 363.351 8.4961C364.796 7.41148 367.144 6.6884 370.394 6.6884H387.189C390.079 6.6884 391.704 8.13456 391.704 11.2076C391.704 12.1115 391.524 13.0153 391.343 14.0999C391.162 15.1846 390.801 16.6307 390.079 18.6192L346.556 158.354C345.473 161.969 344.208 164.319 342.764 165.404C341.319 166.488 338.971 167.211 335.901 167.211H320.37C316.939 167.211 314.591 166.669 313.147 165.404C311.702 164.138 310.438 161.788 309.715 158.173L281.724 41.5769L253.912 157.992C253.009 161.608 251.926 163.958 250.481 165.223C249.036 166.488 246.508 167.031 243.257 167.031H227.727ZM459.787 171.911C450.397 171.911 441.006 170.827 431.976 168.658C422.947 166.488 415.903 164.138 411.208 161.427C408.319 159.8 406.332 157.992 405.61 156.365C404.887 154.738 404.526 152.931 404.526 151.304V142.085C404.526 138.288 405.971 136.481 408.68 136.481C409.763 136.481 410.847 136.661 411.93 137.023C413.014 137.385 414.639 138.108 416.445 138.831C422.585 141.542 429.267 143.711 436.31 145.158C443.534 146.604 450.577 147.327 457.801 147.327C469.178 147.327 478.027 145.338 484.167 141.361C490.307 137.385 493.558 131.6 493.558 124.188C493.558 119.127 491.933 114.969 488.682 111.535C485.431 108.1 479.291 105.027 470.442 102.135L444.256 93.9999C431.073 89.8423 421.321 83.6961 415.362 75.5615C409.402 67.6076 406.332 58.7499 406.332 49.3499C406.332 41.7576 407.957 35.0692 411.208 29.2846C414.459 23.4999 418.793 18.4384 424.211 14.4615C429.628 10.3038 435.769 7.23071 442.992 5.06148C450.216 2.89225 457.801 1.9884 465.747 1.9884C469.72 1.9884 473.874 2.16917 477.847 2.71148C482 3.25379 485.793 3.97686 489.585 4.69994C493.197 5.60379 496.628 6.50763 499.879 7.59225C503.129 8.67686 505.658 9.76148 507.464 10.8461C509.992 12.2922 511.798 13.7384 512.881 15.3653C513.965 16.8115 514.507 18.7999 514.507 21.3307V29.8269C514.507 33.623 513.062 35.6115 510.353 35.6115C508.908 35.6115 506.561 34.8884 503.491 33.4422C493.197 28.7422 481.639 26.3922 468.817 26.3922C458.523 26.3922 450.397 28.0192 444.798 31.4538C439.2 34.8884 436.31 40.1307 436.31 47.5422C436.31 52.6038 438.116 56.9423 441.728 60.3769C445.34 63.8115 452.022 67.2461 461.593 70.3192L487.237 78.4538C500.24 82.6115 509.631 88.3961 515.229 95.8076C520.827 103.219 523.536 111.715 523.536 121.115C523.536 128.888 521.911 135.938 518.841 142.085C515.59 148.231 511.256 153.654 505.658 157.992C500.059 162.511 493.378 165.765 485.612 168.115C477.485 170.646 468.998 171.911 459.787 171.911Z" fill="#252F3E"/>
<path fill-rule="evenodd" clip-rule="evenodd" d="M493.919 259.765C434.505 303.692 348.182 327.012 273.958 327.012C169.937 327.012 76.2098 288.508 5.41772 224.515C-0.18063 219.454 4.87595 212.585 11.5579 216.562C88.1289 261.031 182.579 287.965 280.279 287.965C346.195 287.965 418.612 274.227 485.251 246.027C495.184 241.508 503.671 252.535 493.919 259.765Z" fill="#FF9900"/>
<path fill-rule="evenodd" clip-rule="evenodd" d="M518.661 231.565C511.076 221.804 468.456 226.865 449.133 229.215C443.354 229.938 442.451 224.877 447.688 221.081C481.639 197.219 537.442 204.088 543.943 212.042C550.445 220.177 542.138 276.035 510.353 302.788C505.477 306.946 500.782 304.777 502.949 299.354C510.173 281.458 526.245 241.146 518.661 231.565Z" fill="#FF9900"/>
</svg>
