<svg width="349" height="323" viewBox="0 0 349 323" fill="none" xmlns="http://www.w3.org/2000/svg">
<g clip-path="url(#clip0_68_2)">
<path d="M59.9249 53.0401C63.0854 56.9216 64.6689 61.8498 64.6689 67.8183C64.6689 72.0833 63.7045 76.0948 61.7821 79.8463C59.8598 83.6042 56.6537 86.6925 52.1639 89.1241C47.6741 91.5557 41.7963 92.7715 34.5305 92.7715H0.162842V1.91797H31.8392C42.6955 1.91797 50.4566 4.31056 55.1158 9.08274C59.7751 13.8614 62.1014 19.5308 62.1014 26.104C62.1014 30.6226 60.7982 34.6796 58.1916 38.2555C55.5785 41.8379 51.799 44.354 46.84 45.8038C52.3985 46.7466 56.758 49.1522 59.9249 53.0336V53.0401ZM12.342 12.1515V41.3242H31.8392C43.9793 41.3242 50.0461 36.5455 50.0461 26.9947C50.0461 22.7296 48.7037 19.1927 46.0059 16.3775C43.3146 13.5624 38.5902 12.1515 31.8327 12.1515H12.3355H12.342ZM33.8853 82.5314C40.4669 82.5314 45.2369 81.0426 48.1824 78.0518C51.1343 75.0676 52.607 71.2706 52.607 66.661C52.607 62.0514 51.1734 58.495 48.3127 55.7188C45.4455 52.9491 41.0664 51.5578 35.1691 51.5578H12.342V82.5249H33.8853V82.5314Z" fill="black"/>
<path d="M133.834 63.9758H88.3041C88.3889 70.2044 90.1613 75.2171 93.6281 79.0075C97.0883 82.8045 101.682 84.703 107.417 84.703C111.522 84.703 115.028 83.6627 117.934 81.5692C120.841 79.4822 123.024 76.4719 124.477 72.5514L133.456 76.5174C131.234 82.3234 127.833 86.7315 123.258 89.7612C118.684 92.791 113.145 94.3058 106.648 94.3058C97.4141 94.3058 90.233 91.4711 85.1046 85.7952C79.9762 80.1258 77.4087 72.0378 77.4087 61.5507C77.4087 51.0636 79.9762 42.4035 85.1046 36.344C90.233 30.291 97.3685 27.2612 106.518 27.2612C115.667 27.2612 121.975 29.7383 126.718 34.6861C131.462 39.6338 133.834 46.8376 133.834 56.3104V63.9888V63.9758ZM122.802 55.1466V53.7358C122.802 47.9364 121.368 43.5023 118.508 40.427C115.641 37.3582 111.561 35.8173 106.263 35.8173C100.705 35.8173 96.365 37.5273 93.2436 40.9341C90.1222 44.3475 88.4736 49.0806 88.3041 55.1401H122.802V55.1466Z" fill="black"/>
<path d="M206.121 92.765H192.652L173.285 61.4142L161.614 73.1886V92.765H150.712V0H161.614V60.2699L190.338 28.7956H204.577L181.111 53.4887L206.121 92.7715V92.765Z" fill="black"/>
<path d="M274.439 92.765H260.969L241.603 61.4142L229.932 73.1886V92.765H219.03V0H229.932V60.2699L258.656 28.7956H272.895L249.429 53.4887L274.439 92.7715V92.765Z" fill="black"/>
<path d="M138.975 168.158C142.136 172.039 143.719 176.967 143.719 182.936C143.719 187.201 142.755 191.212 140.833 194.964C138.91 198.722 135.704 201.81 131.214 204.242C126.725 206.673 120.847 207.889 113.581 207.889H79.2134V117.042H110.89C121.746 117.042 129.507 119.435 134.166 124.207C138.826 128.985 141.152 134.655 141.152 141.228C141.152 145.747 139.849 149.804 137.242 153.379C134.629 156.962 130.85 159.478 125.891 160.928C131.449 161.871 135.809 164.276 138.975 168.158ZM91.3926 127.276V156.448H110.89C123.03 156.448 129.097 151.67 129.097 142.119C129.097 137.854 127.754 134.317 125.056 131.502C122.365 128.686 117.641 127.276 110.883 127.276H91.3861H91.3926ZM112.936 197.655C119.517 197.655 124.287 196.167 127.233 193.176C130.185 190.192 131.658 186.395 131.658 181.785C131.658 177.175 130.224 173.619 127.363 170.843C124.496 168.073 120.117 166.682 114.22 166.682H91.3926V197.649H112.936V197.655Z" fill="black"/>
<path d="M274.335 207.882H260.865L241.499 176.532L229.828 188.306V207.882H218.926V115.117H229.828V175.387L258.552 143.913H272.791L249.325 168.606L274.335 207.889V207.882Z" fill="black"/>
<path d="M344.256 283.275C347.417 287.157 349 292.085 349 298.053C349 302.318 348.036 306.33 346.113 310.081C344.191 313.839 340.985 316.928 336.495 319.359C332.005 321.791 326.128 323.007 318.862 323.007H284.494V232.16H316.17C327.027 232.16 334.788 234.552 339.447 239.324C344.106 244.103 346.433 249.772 346.433 256.346C346.433 260.864 345.129 264.921 342.523 268.497C339.91 272.079 336.13 274.596 331.171 276.045C336.73 276.988 341.089 279.394 344.256 283.275ZM296.673 242.393V271.566H316.17C328.311 271.566 334.377 266.787 334.377 257.236C334.377 252.971 333.035 249.434 330.337 246.619C327.646 243.804 322.921 242.393 316.164 242.393H296.667H296.673ZM318.217 312.773C324.798 312.773 329.568 311.284 332.514 308.293C335.466 305.309 336.938 301.512 336.938 296.903C336.938 292.293 335.505 288.737 332.644 285.96C329.777 283.191 325.398 281.799 319.5 281.799H296.673V312.767H318.217V312.773Z" fill="black"/>
</g>
<defs>
<clipPath id="clip0_68_2">
<rect width="349" height="323" fill="white"/>
</clipPath>
</defs>
</svg>
