<svg width="470" height="323" viewBox="0 0 470 323" fill="none" xmlns="http://www.w3.org/2000/svg">
<g clip-path="url(#clip0_72_2)">
<path d="M452.985 161.218C450.097 158.851 446.971 156.79 443.657 155.069L442.757 154.622L443.542 153.947C448.264 149.561 451.963 144.192 454.377 138.219C456.791 132.247 457.861 125.817 457.512 119.386C457.481 102.564 451.734 90.0131 440.27 82.0713C430.603 75.2439 417.24 71.9059 399.391 71.9377L348.203 72.0295C346.78 72.0511 345.422 72.6268 344.417 73.6341C343.413 74.6413 342.841 76.0004 342.825 77.4221L343.127 245.081C343.13 246.508 343.7 247.876 344.712 248.884C345.724 249.891 347.096 250.456 348.525 250.454L407.009 250.349C425.418 250.316 440.229 246.363 450.879 238.607C456.988 234.189 461.85 228.269 464.992 221.42C468.47 213.705 470.181 205.311 470 196.852C470.043 190.014 468.534 183.255 465.587 177.084C462.64 170.912 458.331 165.488 452.985 161.218ZM359.459 88.7216L399.422 88.6499C413.566 88.6243 424.01 90.9602 430.753 95.6575C435.024 98.678 440.872 104.5 440.899 119.415C440.947 146.105 419.847 148.273 413.448 148.284L359.566 148.381L359.459 88.7216ZM406.979 233.752L359.72 233.836L359.597 164.978L413.479 164.881C436.828 164.84 453.24 178.04 453.274 196.882C453.29 205.967 453.34 233.669 406.979 233.752Z" fill="#007272"/>
<path d="M113.639 99.0303C106.11 89.8886 96.4109 82.7736 85.426 78.333C75.4048 74.4409 64.7361 72.4812 53.9846 72.5579L5.37872 72.6452C3.93784 72.6734 2.56594 73.2669 1.5595 74.2974C0.553053 75.3279 -0.00710927 76.7126 6.81316e-05 78.1524L0.30166 245.697C0.304605 247.125 0.874949 248.493 1.88728 249.5C2.89961 250.508 4.27104 251.072 5.70001 251.07L54.3054 250.983C65.0623 251.077 75.7347 249.077 85.726 245.094C96.7111 240.696 106.395 233.576 113.865 224.405C131.002 203.293 133.536 176.708 133.511 162.69C133.489 150.808 131.527 120.863 113.639 99.0303ZM100.937 213.887C95.203 220.589 88.0295 225.913 79.9506 229.462C71.8718 233.011 63.0956 234.694 54.2756 234.385L17.0069 234.452L16.7463 89.3367L54.0144 89.2701C62.8364 88.9013 71.627 90.5391 79.7229 94.0598C87.8188 97.5806 95.0086 102.892 100.75 109.594C115.6 127.737 116.771 154.873 116.785 162.72C116.806 174.498 114.825 196.816 100.937 213.887Z" fill="#007272"/>
<path d="M302.611 0L303.054 246.275C303.076 247.347 302.75 248.396 302.124 249.267C301.498 250.137 300.606 250.78 299.582 251.1C299.087 251.32 298.553 251.437 298.011 251.442C297.199 251.444 296.398 251.251 295.675 250.881C294.952 250.511 294.327 249.974 293.854 249.314L183.705 109.67L184.089 322.97L167.363 323L166.919 76.1659C166.919 75.084 167.267 74.0308 167.913 73.1619C168.558 72.2931 169.466 71.6547 170.503 71.3411C171.003 71.1485 171.54 71.0708 172.074 71.114C172.875 71.1033 173.668 71.2791 174.39 71.6276C175.111 71.976 175.742 72.4876 176.231 73.1216L286.379 212.881L285.996 0.0297766L302.611 0Z" fill="#007272"/>
</g>
<defs>
<clipPath id="clip0_72_2">
<rect width="470" height="323" fill="white"/>
</clipPath>
</defs>
</svg>
