<svg width="980" height="194" viewBox="0 0 980 194" fill="none" xmlns="http://www.w3.org/2000/svg">
<g clip-path="url(#clip0_204_248)">
<mask id="mask0_204_248" style="mask-type:luminance" maskUnits="userSpaceOnUse" x="0" y="0" width="980" height="194">
<path d="M979.312 0H0.3125V194H979.312V0Z" fill="white"/>
</mask>
<g mask="url(#mask0_204_248)">
<path d="M73.0314 194C58.7332 194 46.0958 190.97 35.1193 184.981C24.1429 178.921 15.6217 170.697 9.48363 160.308C3.34547 149.774 0.3125 137.871 0.3125 124.379C0.3125 113.702 2.04562 103.962 5.51186 95.1602C8.97811 86.3583 13.7442 78.7112 19.8823 72.2902C26.0205 65.8692 33.314 60.8191 41.9075 57.2839C50.4286 53.7487 59.8164 52.0172 69.9984 52.0172C78.9529 52.0172 87.3294 53.7487 95.1291 57.2117C102.928 60.6747 109.643 65.3642 115.348 71.2802C121.053 77.1961 125.386 84.2663 128.419 92.4911C131.452 100.715 132.897 109.59 132.68 119.257L132.391 130.367H11.9389L6.01736 108.651H105.672L101.556 113.053V107.353C101.05 102.014 99.3169 97.3249 96.3564 93.2841C93.396 89.244 89.6402 86.0697 85.0907 83.6892C80.5415 81.3806 75.4867 80.2263 69.9262 80.2263C61.4773 80.2263 54.3281 81.8858 48.5511 85.132C42.774 88.3783 38.4412 93.1402 35.4804 99.2003C32.5197 105.333 31.0754 112.98 31.0754 122.07C31.0754 131.161 32.9529 138.52 36.6358 145.085C40.3187 151.651 45.5903 156.7 52.4506 160.236C59.2387 163.771 67.2543 165.575 76.4255 165.575C82.7799 165.575 88.7016 164.565 94.0457 162.473C99.3889 160.38 105.167 156.7 111.376 151.362L127.192 173.366C122.497 177.695 117.226 181.375 111.304 184.332C105.383 187.363 99.1001 189.743 92.5286 191.475C85.9572 193.206 79.4584 194.072 73.1036 194.072L73.0314 194Z" fill="url(#paint0_linear_204_248)"/>
<path d="M163.734 191.403V55.1191H194.786L195.292 83.0401L189.37 86.1425C191.103 79.9373 194.426 74.3099 199.48 69.1876C204.463 64.1374 210.457 60.025 217.317 56.9227C224.25 53.8205 231.327 52.2333 238.548 52.2333C248.874 52.2333 257.54 54.3256 264.545 58.4379C271.549 62.5502 276.821 68.7547 280.359 77.0514C283.898 85.3487 285.631 95.6654 285.631 108.074V191.331H253.785V110.456C253.785 103.529 252.846 97.8293 250.968 93.2849C249.091 88.7396 246.131 85.3487 242.159 83.184C238.187 81.02 233.349 80.0095 227.644 80.2259C223.022 80.2259 218.689 80.9473 214.862 82.3902C210.963 83.833 207.64 85.9258 204.752 88.5949C201.936 91.2641 199.625 94.2945 198.036 97.7574C196.376 101.22 195.581 104.972 195.581 109.157V191.403H163.734Z" fill="url(#paint1_linear_204_248)"/>
<path d="M375.746 194C364.553 194 354.371 190.898 345.2 184.693C336.029 178.489 328.735 170.047 323.175 159.37C317.687 148.692 314.87 136.5 314.87 122.936C314.87 109.373 317.614 97.1803 323.175 86.503C328.663 75.8253 336.173 67.4563 345.705 61.3961C355.165 55.3359 365.925 52.3779 377.84 52.3779C384.772 52.3779 391.055 53.3879 396.76 55.3359C402.465 57.356 407.448 60.0975 411.781 63.7048C416.113 67.312 419.651 71.4965 422.54 76.1138C425.428 80.7312 427.306 85.7812 428.39 91.1202L421.385 89.3168V55.1195H453.447V191.403H421.096V158.793L428.606 157.494C427.378 162.184 425.212 166.657 422.035 171.058C418.857 175.458 414.886 179.355 410.12 182.673C405.353 186.064 400.082 188.734 394.305 190.826C388.527 192.918 382.318 193.928 375.818 193.928L375.746 194ZM384.556 165.791C391.994 165.791 398.566 163.987 404.198 160.38C409.903 156.773 414.308 151.723 417.558 145.229C420.735 138.737 422.324 131.306 422.324 122.864C422.324 114.424 420.735 107.281 417.558 100.86C414.38 94.5112 409.903 89.4607 404.198 85.8539C398.493 82.2463 391.921 80.4426 384.556 80.4426C377.19 80.4426 370.619 82.2463 364.986 85.8539C359.353 89.4607 355.02 94.5112 351.915 100.86C348.811 107.208 347.222 114.568 347.222 122.864C347.222 131.161 348.811 138.737 351.915 145.229C355.02 151.723 359.353 156.773 364.986 160.38C370.619 163.987 377.118 165.791 384.556 165.791Z" fill="url(#paint2_linear_204_248)"/>
<path d="M568.703 194C562.637 194 556.716 193.062 550.938 191.258C545.161 189.455 539.962 187.002 535.269 183.9C530.574 180.797 526.747 177.335 523.642 173.438C520.537 169.542 518.443 165.647 517.432 161.679L524.941 158.288L524.148 190.898H493.312V0H525.158V86.6469L519.453 84.0497C520.32 79.9375 522.27 75.9695 525.303 72.2901C528.336 68.6106 532.091 65.2198 536.568 62.1897C541.046 59.1596 545.956 56.7787 551.3 54.9751C556.643 53.1714 562.059 52.2335 567.62 52.2335C579.897 52.2335 590.728 55.2636 600.116 61.2518C609.504 67.312 616.942 75.6809 622.358 86.3583C627.774 97.0364 630.518 109.228 630.518 122.792C630.518 136.355 627.846 148.837 622.503 159.514C617.158 170.192 609.792 178.633 600.405 184.766C591.017 190.898 580.401 193.928 568.703 193.928V194ZM561.987 166.079C569.208 166.079 575.708 164.204 581.413 160.524C587.118 156.845 591.595 151.723 594.845 145.229C598.094 138.737 599.755 131.306 599.755 122.864C599.755 114.423 598.166 107.28 594.989 100.86C591.811 94.5111 587.335 89.4607 581.63 85.8531C575.925 82.2463 569.353 80.4426 561.987 80.4426C554.621 80.4426 547.978 82.2463 542.345 85.8531C536.713 89.4607 532.163 94.5111 528.913 100.86C525.664 107.208 524.003 114.568 524.003 122.864C524.003 131.161 525.664 138.737 528.913 145.229C532.163 151.723 536.713 156.773 542.345 160.524C548.05 164.204 554.621 166.079 561.987 166.079Z" fill="url(#paint3_linear_204_248)"/>
<path d="M662.147 191.403V0H694.283V191.403H662.147Z" fill="url(#paint4_linear_204_248)"/>
<path d="M796.03 194C781.732 194 769.095 190.97 758.119 184.981C747.143 178.921 738.621 170.697 732.483 160.308C726.345 149.846 723.312 137.943 723.312 124.524C723.312 113.846 725.045 104.106 728.511 95.3049C731.977 86.503 736.743 78.8552 742.882 72.4342C749.02 66.0133 756.314 60.963 764.907 57.4279C773.427 53.8927 782.815 52.1613 792.998 52.1613C801.952 52.1613 810.334 53.8927 818.126 57.3558C825.925 60.8187 832.641 65.5082 838.353 71.4242C844.057 77.3401 848.386 84.4102 851.42 92.635C854.454 100.86 855.894 109.734 855.684 119.401L855.392 130.512H744.831L738.91 108.796H828.741L824.631 113.197V107.497C824.121 102.159 822.39 97.4688 819.428 93.4288C816.467 89.3887 812.713 86.2144 808.163 83.8331C803.613 81.5245 798.558 80.3702 792.998 80.3702C784.548 80.3702 777.399 82.0297 771.622 85.2759C765.845 88.523 761.513 93.2849 758.551 99.345C755.591 105.477 754.147 113.125 754.147 122.215C754.147 131.306 756.025 138.664 759.707 145.229C763.39 151.794 768.662 156.845 775.522 160.38C782.31 163.915 790.325 165.719 799.497 165.719C805.852 165.719 811.774 164.709 817.122 162.616C822.462 160.524 828.239 156.845 834.453 151.506L850.263 173.51C845.57 177.839 840.303 181.519 834.38 184.477C828.458 187.507 822.171 189.888 815.601 191.619C809.029 193.351 802.53 194.217 796.175 194.217L796.03 194Z" fill="url(#paint5_linear_204_248)"/>
<path d="M886.728 191.403V55.1196H918.072L918.574 98.5512L914.172 88.7397C916.049 81.8131 919.375 75.609 923.995 70.1259C928.688 64.6429 934.028 60.242 940.169 57.0676C946.31 53.8932 952.734 52.3059 959.449 52.3059C962.41 52.3059 965.153 52.5945 967.896 53.0995C970.574 53.6045 972.807 54.2538 974.474 54.9032L965.946 89.8212C964.069 88.8116 961.69 87.9459 958.948 87.2241C956.205 86.503 953.381 86.2144 950.638 86.2144C946.309 86.2144 942.264 87.0082 938.364 88.6669C934.464 90.3264 931.074 92.5631 928.113 95.5208C925.152 98.4793 922.911 101.87 921.252 105.766C919.585 109.662 918.792 113.99 918.792 118.824V191.475H886.728V191.403Z" fill="url(#paint6_linear_204_248)"/>
<mask id="mask1_204_248" style="mask-type:alpha" maskUnits="userSpaceOnUse" x="0" y="0" width="975" height="195">
<path d="M73.0314 194C58.7332 194 46.0958 190.97 35.1193 184.981C24.1429 178.921 15.6217 170.697 9.48363 160.308C3.34547 149.774 0.3125 137.871 0.3125 124.379C0.3125 113.702 2.04562 103.962 5.51186 95.1602C8.97811 86.3583 13.7442 78.7112 19.8823 72.2902C26.0205 65.8692 33.314 60.8191 41.9075 57.2839C50.4286 53.7487 59.8164 52.0172 69.9984 52.0172C78.9529 52.0172 87.3294 53.7487 95.1291 57.2117C102.928 60.6747 109.643 65.3642 115.348 71.2802C121.053 77.1961 125.386 84.2663 128.419 92.4911C131.452 100.715 132.897 109.59 132.68 119.257L132.391 130.367H11.9389L6.01736 108.651H105.672L101.556 113.053V107.353C101.05 102.014 99.3169 97.3249 96.3564 93.2841C93.396 89.244 89.6402 86.0697 85.0907 83.6892C80.5415 81.3806 75.4867 80.2263 69.9262 80.2263C61.4773 80.2263 54.3281 81.8858 48.5511 85.132C42.774 88.3783 38.4412 93.1402 35.4804 99.2003C32.5197 105.333 31.0754 112.98 31.0754 122.07C31.0754 131.161 32.9529 138.52 36.6358 145.085C40.3187 151.651 45.5903 156.7 52.4506 160.236C59.2387 163.771 67.2543 165.575 76.4255 165.575C82.7799 165.575 88.7016 164.565 94.0457 162.473C99.3889 160.38 105.167 156.7 111.376 151.362L127.192 173.366C122.497 177.695 117.226 181.375 111.304 184.332C105.383 187.363 99.1001 189.743 92.5286 191.475C85.9572 193.206 79.4584 194.072 73.1036 194.072L73.0314 194Z" fill="url(#paint7_linear_204_248)"/>
<path d="M163.734 191.403V55.1191H194.786L195.292 83.0401L189.37 86.1425C191.103 79.9373 194.426 74.3099 199.48 69.1876C204.463 64.1374 210.457 60.025 217.317 56.9227C224.25 53.8205 231.327 52.2333 238.548 52.2333C248.874 52.2333 257.54 54.3256 264.545 58.4379C271.549 62.5502 276.821 68.7547 280.359 77.0514C283.898 85.3487 285.631 95.6654 285.631 108.074V191.331H253.785V110.456C253.785 103.529 252.846 97.8293 250.968 93.2849C249.091 88.7396 246.131 85.3487 242.159 83.184C238.187 81.02 233.349 80.0095 227.644 80.2259C223.022 80.2259 218.689 80.9473 214.862 82.3902C210.963 83.833 207.64 85.9258 204.752 88.5949C201.936 91.2641 199.625 94.2945 198.036 97.7574C196.376 101.22 195.581 104.972 195.581 109.157V191.403H163.734Z" fill="url(#paint8_linear_204_248)"/>
<path d="M375.746 194C364.553 194 354.371 190.898 345.2 184.693C336.029 178.489 328.735 170.047 323.175 159.37C317.687 148.692 314.87 136.5 314.87 122.936C314.87 109.373 317.614 97.1803 323.175 86.503C328.663 75.8253 336.173 67.4563 345.705 61.3961C355.165 55.3359 365.925 52.3779 377.84 52.3779C384.772 52.3779 391.055 53.3879 396.76 55.3359C402.465 57.356 407.448 60.0975 411.781 63.7048C416.113 67.312 419.651 71.4965 422.54 76.1138C425.428 80.7312 427.306 85.7812 428.39 91.1202L421.385 89.3168V55.1195H453.447V191.403H421.096V158.793L428.606 157.494C427.378 162.184 425.212 166.657 422.035 171.058C418.857 175.458 414.886 179.355 410.12 182.673C405.353 186.064 400.082 188.734 394.305 190.826C388.527 192.918 382.318 193.928 375.818 193.928L375.746 194ZM384.556 165.791C391.994 165.791 398.566 163.987 404.198 160.38C409.903 156.773 414.308 151.723 417.558 145.229C420.735 138.737 422.324 131.306 422.324 122.864C422.324 114.424 420.735 107.281 417.558 100.86C414.38 94.5112 409.903 89.4607 404.198 85.8539C398.493 82.2463 391.921 80.4426 384.556 80.4426C377.19 80.4426 370.619 82.2463 364.986 85.8539C359.353 89.4607 355.02 94.5112 351.915 100.86C348.811 107.208 347.222 114.568 347.222 122.864C347.222 131.161 348.811 138.737 351.915 145.229C355.02 151.723 359.353 156.773 364.986 160.38C370.619 163.987 377.118 165.791 384.556 165.791Z" fill="url(#paint9_linear_204_248)"/>
<path d="M568.703 194C562.637 194 556.716 193.062 550.938 191.258C545.161 189.455 539.962 187.002 535.269 183.9C530.574 180.797 526.747 177.335 523.642 173.438C520.537 169.542 518.443 165.647 517.432 161.679L524.941 158.288L524.148 190.898H493.312V0H525.158V86.6469L519.453 84.0497C520.32 79.9375 522.27 75.9695 525.303 72.2901C528.336 68.6106 532.091 65.2198 536.568 62.1897C541.046 59.1596 545.956 56.7787 551.3 54.9751C556.643 53.1714 562.059 52.2335 567.62 52.2335C579.897 52.2335 590.728 55.2636 600.116 61.2518C609.504 67.312 616.942 75.6809 622.358 86.3583C627.774 97.0364 630.518 109.228 630.518 122.792C630.518 136.355 627.846 148.837 622.503 159.514C617.158 170.192 609.792 178.633 600.405 184.766C591.017 190.898 580.401 193.928 568.703 193.928V194ZM561.987 166.079C569.208 166.079 575.708 164.204 581.413 160.524C587.118 156.845 591.595 151.723 594.845 145.229C598.094 138.737 599.755 131.306 599.755 122.864C599.755 114.423 598.166 107.28 594.989 100.86C591.811 94.5111 587.335 89.4607 581.63 85.8531C575.925 82.2463 569.353 80.4426 561.987 80.4426C554.621 80.4426 547.978 82.2463 542.345 85.8531C536.713 89.4607 532.163 94.5111 528.913 100.86C525.664 107.208 524.003 114.568 524.003 122.864C524.003 131.161 525.664 138.737 528.913 145.229C532.163 151.723 536.713 156.773 542.345 160.524C548.05 164.204 554.621 166.079 561.987 166.079Z" fill="url(#paint10_linear_204_248)"/>
<path d="M662.147 191.403V0H694.283V191.403H662.147Z" fill="url(#paint11_linear_204_248)"/>
<path d="M796.03 194C781.732 194 769.095 190.97 758.119 184.981C747.143 178.921 738.621 170.697 732.483 160.308C726.345 149.846 723.312 137.943 723.312 124.524C723.312 113.846 725.045 104.106 728.511 95.3049C731.977 86.503 736.743 78.8552 742.882 72.4342C749.02 66.0133 756.314 60.963 764.907 57.4279C773.427 53.8927 782.815 52.1613 792.998 52.1613C801.952 52.1613 810.334 53.8927 818.126 57.3558C825.925 60.8187 832.641 65.5082 838.353 71.4242C844.057 77.3401 848.386 84.4102 851.42 92.635C854.454 100.86 855.894 109.734 855.684 119.401L855.392 130.512H744.831L738.91 108.796H828.741L824.631 113.197V107.497C824.121 102.159 822.39 97.4688 819.428 93.4288C816.467 89.3887 812.713 86.2144 808.163 83.8331C803.613 81.5245 798.558 80.3702 792.998 80.3702C784.548 80.3702 777.399 82.0297 771.622 85.2759C765.845 88.523 761.513 93.2849 758.551 99.345C755.591 105.477 754.147 113.125 754.147 122.215C754.147 131.306 756.025 138.664 759.707 145.229C763.39 151.794 768.662 156.845 775.522 160.38C782.31 163.915 790.325 165.719 799.497 165.719C805.852 165.719 811.774 164.709 817.122 162.616C822.462 160.524 828.239 156.845 834.453 151.506L850.263 173.51C845.57 177.839 840.303 181.519 834.38 184.477C828.458 187.507 822.171 189.888 815.601 191.619C809.029 193.351 802.53 194.217 796.175 194.217L796.03 194Z" fill="url(#paint12_linear_204_248)"/>
<path d="M886.728 191.403V55.1196H918.072L918.574 98.5512L914.172 88.7397C916.049 81.8131 919.375 75.609 923.995 70.1259C928.688 64.6429 934.028 60.242 940.169 57.0676C946.31 53.8932 952.734 52.3059 959.449 52.3059C962.41 52.3059 965.153 52.5945 967.896 53.0995C970.574 53.6045 972.807 54.2538 974.474 54.9032L965.946 89.8212C964.069 88.8116 961.69 87.9459 958.948 87.2241C956.205 86.503 953.381 86.2144 950.638 86.2144C946.309 86.2144 942.264 87.0082 938.364 88.6669C934.464 90.3264 931.074 92.5631 928.113 95.5208C925.152 98.4793 922.911 101.87 921.252 105.766C919.585 109.662 918.792 113.99 918.792 118.824V191.475H886.728V191.403Z" fill="url(#paint13_linear_204_248)"/>
</mask>
<g mask="url(#mask1_204_248)">
<path style="mix-blend-mode:screen" d="M855.611 398.605C1075.96 398.605 1254.59 220.144 1254.59 -0.000119308C1254.59 -220.144 1075.96 -398.605 855.611 -398.605C635.256 -398.605 456.627 -220.144 456.627 -0.000119308C456.627 220.144 635.256 398.605 855.611 398.605Z" fill="url(#paint14_radial_204_248)"/>
</g>
</g>
</g>
<defs>
<linearGradient id="paint0_linear_204_248" x1="-105.697" y1="159.947" x2="1054.03" y2="-83.0426" gradientUnits="userSpaceOnUse">
<stop stop-color="#1B0051"/>
<stop offset="0.44" stop-color="#3A0079"/>
<stop offset="0.79" stop-color="#4F0093"/>
<stop offset="1" stop-color="#57009D"/>
</linearGradient>
<linearGradient id="paint1_linear_204_248" x1="-99.1942" y1="190.97" x2="1060.53" y2="-52.0201" gradientUnits="userSpaceOnUse">
<stop stop-color="#1B0051"/>
<stop offset="0.44" stop-color="#3A0079"/>
<stop offset="0.79" stop-color="#4F0093"/>
<stop offset="1" stop-color="#57009D"/>
</linearGradient>
<linearGradient id="paint2_linear_204_248" x1="-91.6188" y1="227.187" x2="1068.12" y2="-15.8028" gradientUnits="userSpaceOnUse">
<stop stop-color="#1B0051"/>
<stop offset="0.44" stop-color="#3A0079"/>
<stop offset="0.79" stop-color="#4F0093"/>
<stop offset="1" stop-color="#57009D"/>
</linearGradient>
<linearGradient id="paint3_linear_204_248" x1="-91.4718" y1="227.836" x2="1068.25" y2="-15.1536" gradientUnits="userSpaceOnUse">
<stop stop-color="#1B0051"/>
<stop offset="0.44" stop-color="#3A0079"/>
<stop offset="0.79" stop-color="#4F0093"/>
<stop offset="1" stop-color="#57009D"/>
</linearGradient>
<linearGradient id="paint4_linear_204_248" x1="-85.6941" y1="255.468" x2="1074.03" y2="12.4782" gradientUnits="userSpaceOnUse">
<stop stop-color="#1B0051"/>
<stop offset="0.44" stop-color="#3A0079"/>
<stop offset="0.79" stop-color="#4F0093"/>
<stop offset="1" stop-color="#57009D"/>
</linearGradient>
<linearGradient id="paint5_linear_204_248" x1="-75.3689" y1="304.816" x2="1084.36" y2="61.8259" gradientUnits="userSpaceOnUse">
<stop stop-color="#1B0051"/>
<stop offset="0.44" stop-color="#3A0079"/>
<stop offset="0.79" stop-color="#4F0093"/>
<stop offset="1" stop-color="#57009D"/>
</linearGradient>
<linearGradient id="paint6_linear_204_248" x1="-70.7483" y1="326.821" x2="1088.98" y2="83.8306" gradientUnits="userSpaceOnUse">
<stop stop-color="#1B0051"/>
<stop offset="0.44" stop-color="#3A0079"/>
<stop offset="0.79" stop-color="#4F0093"/>
<stop offset="1" stop-color="#57009D"/>
</linearGradient>
<linearGradient id="paint7_linear_204_248" x1="-105.697" y1="159.947" x2="1054.03" y2="-83.0426" gradientUnits="userSpaceOnUse">
<stop stop-color="#1B0051"/>
<stop offset="0.44" stop-color="#3A0079"/>
<stop offset="0.79" stop-color="#4F0093"/>
<stop offset="1" stop-color="#57009D"/>
</linearGradient>
<linearGradient id="paint8_linear_204_248" x1="-99.1942" y1="190.97" x2="1060.53" y2="-52.0201" gradientUnits="userSpaceOnUse">
<stop stop-color="#1B0051"/>
<stop offset="0.44" stop-color="#3A0079"/>
<stop offset="0.79" stop-color="#4F0093"/>
<stop offset="1" stop-color="#57009D"/>
</linearGradient>
<linearGradient id="paint9_linear_204_248" x1="-91.6188" y1="227.187" x2="1068.12" y2="-15.8028" gradientUnits="userSpaceOnUse">
<stop stop-color="#1B0051"/>
<stop offset="0.44" stop-color="#3A0079"/>
<stop offset="0.79" stop-color="#4F0093"/>
<stop offset="1" stop-color="#57009D"/>
</linearGradient>
<linearGradient id="paint10_linear_204_248" x1="-91.4718" y1="227.836" x2="1068.25" y2="-15.1536" gradientUnits="userSpaceOnUse">
<stop stop-color="#1B0051"/>
<stop offset="0.44" stop-color="#3A0079"/>
<stop offset="0.79" stop-color="#4F0093"/>
<stop offset="1" stop-color="#57009D"/>
</linearGradient>
<linearGradient id="paint11_linear_204_248" x1="-85.6941" y1="255.468" x2="1074.03" y2="12.4782" gradientUnits="userSpaceOnUse">
<stop stop-color="#1B0051"/>
<stop offset="0.44" stop-color="#3A0079"/>
<stop offset="0.79" stop-color="#4F0093"/>
<stop offset="1" stop-color="#57009D"/>
</linearGradient>
<linearGradient id="paint12_linear_204_248" x1="-75.3689" y1="304.816" x2="1084.36" y2="61.8259" gradientUnits="userSpaceOnUse">
<stop stop-color="#1B0051"/>
<stop offset="0.44" stop-color="#3A0079"/>
<stop offset="0.79" stop-color="#4F0093"/>
<stop offset="1" stop-color="#57009D"/>
</linearGradient>
<linearGradient id="paint13_linear_204_248" x1="-70.7483" y1="326.821" x2="1088.98" y2="83.8306" gradientUnits="userSpaceOnUse">
<stop stop-color="#1B0051"/>
<stop offset="0.44" stop-color="#3A0079"/>
<stop offset="0.79" stop-color="#4F0093"/>
<stop offset="1" stop-color="#57009D"/>
</linearGradient>
<radialGradient id="paint14_radial_204_248" cx="0" cy="0" r="1" gradientUnits="userSpaceOnUse" gradientTransform="translate(855.611 -0.000123024) scale(398.979 398.605)">
<stop stop-color="#2663FF"/>
<stop offset="0.13" stop-color="#2663FF" stop-opacity="0.84"/>
<stop offset="0.37" stop-color="#2663FF" stop-opacity="0.54"/>
<stop offset="0.59" stop-color="#2663FF" stop-opacity="0.31"/>
<stop offset="0.77" stop-color="#2663FF" stop-opacity="0.14"/>
<stop offset="0.92" stop-color="#2663FF" stop-opacity="0.04"/>
<stop offset="1" stop-color="#2663FF" stop-opacity="0"/>
</radialGradient>
<clipPath id="clip0_204_248">
<rect width="979" height="194" fill="white" transform="translate(0.3125)"/>
</clipPath>
</defs>
</svg>
