<svg width="812" height="305" viewBox="0 0 812 305" fill="none" xmlns="http://www.w3.org/2000/svg">
<g clip-path="url(#clip0_98_92)">
<path d="M378.366 95.4712C395.201 95.4712 408.876 101.479 419.409 113.525C429.955 125.554 434.26 140.125 432.343 157.234H345.529C347.029 165.705 350.918 172.577 357.225 177.844C363.514 183.124 371.117 185.755 380.008 185.755C386.852 185.755 392.973 184.069 398.379 180.724C403.785 177.378 407.997 172.826 411.002 167.084L429.063 175.075C424.416 183.976 417.771 191.084 409.16 196.426C400.532 201.751 390.607 204.431 379.391 204.431C363.656 204.431 350.46 199.231 339.786 188.826C329.098 178.439 323.771 165.509 323.771 150.055C323.771 134.588 329.005 121.627 339.475 111.16C349.928 100.702 362.893 95.4712 378.366 95.4712ZM378.366 114.142C370.421 114.142 363.545 116.574 357.735 121.419C351.912 126.282 348.055 132.596 346.133 140.4H410.581C408.814 132.596 405.006 126.282 399.196 121.419C393.377 116.574 386.435 114.142 378.366 114.142Z" fill="#124442"/>
<path d="M488.379 195.801L520.612 97.5122H542.574L505.836 202.363H469.298L432.56 97.5122H455.947L488.379 195.801Z" fill="#124442"/>
<path d="M553.759 76.7958C551.096 74.1957 549.764 71.0499 549.764 67.3494C549.764 63.6623 551.096 60.5076 553.759 57.9031C556.422 55.3163 559.614 54.0162 563.302 54.0162C567.004 54.0162 570.146 55.3163 572.752 57.9031C575.353 60.5031 576.653 63.6623 576.653 67.3494C576.653 71.0499 575.353 74.1913 572.752 76.7958C570.151 79.4003 567.004 80.6826 563.302 80.6826C559.614 80.6826 556.422 79.3959 553.759 76.7958ZM573.968 202.363H552.423V97.5122H573.968V202.363Z" fill="#124442"/>
<path d="M655.238 95.4712C667.146 95.4712 676.858 99.6375 684.386 107.984C691.913 116.33 695.677 126.934 695.677 139.788V202.363H674.133V143.062C674.133 134.996 671.532 128.323 666.325 123.06C661.123 117.798 654.692 115.163 647.026 115.163C638.416 115.163 631.367 117.794 625.886 123.06C620.417 128.323 617.679 134.996 617.679 143.062V202.363H596.134V97.5122H617.679V124.591C620.559 115.566 625.313 108.458 631.944 103.254C638.589 98.0713 646.347 95.4712 655.238 95.4712Z" fill="#124442"/>
<path d="M756.441 196.417L789.695 97.5122H811.656L762.389 243.392H740.427L754.399 202.363H737.364L701.647 97.5122H725.034L756.441 196.417Z" fill="#124442"/>
<path d="M243.341 209.081C251.951 191.697 255.715 171.907 253.563 152.615C247.113 98.0269 201.933 50.5554 148.462 39.5694C136.744 37.1823 124.61 36.743 112.67 37.0137C72.4166 37.8345 30.8319 54.9125 18.2841 96.2921C-6.71374 178.399 91.0852 313.994 181.401 274.527C209.714 261.934 229.879 236.315 243.341 209.081ZM246.168 210.514C230.58 240.02 211.059 271.177 180.775 287.46C151.76 303.261 117.965 299.303 89.8823 283.445C42.3277 257.08 6.25125 198.432 1.00045 144.66C-3.42478 97.0685 17.3077 57.2952 61.8174 38.043C77.6231 31.1967 94.5428 27.1458 111.52 24.5368C130.557 21.6306 149.98 20.1042 169.035 24.1508C212.178 32.4835 248.818 67.3495 259.377 109.834C268.259 143.457 262.04 180.182 246.168 210.514Z" fill="#76E691"/>
<path d="M154.561 256.437C178.569 253.3 201.063 241.435 217.291 223.563C237.908 200.699 249.808 171.06 254.548 140.924C259.279 109.164 255.804 74.1736 236.084 47.7867C221.898 28.9294 201.09 17.2069 178.183 12.304C156.358 7.96015 133.553 11.847 113.233 20.4636C75.3993 36.6676 41.2891 68.2191 30.9207 108.809C21.764 143.24 29.9087 180.608 50.8808 209.276C74.6759 242.66 113.247 262.347 154.561 256.437ZM154.96 259.583C93.6994 267.179 31.5509 234.012 13.7169 172.941C5.9938 147.464 6.95696 119.484 16.2291 94.5483C39.7534 33.2599 108.582 -8.24379 173.753 2.12992C221.609 10.5602 260.704 44.4101 274.202 91.3536C284.308 126.082 278.902 164.897 260.101 195.747C237.597 232.832 197.322 254.8 154.96 259.583Z" fill="#55B077"/>
<path d="M63.5351 248.677C90.8277 272.636 125.311 287.061 161.924 284.829C222.648 281.79 269.093 229.85 265.369 169.023C264.308 150.379 258.658 131.961 250.411 115.242C224.055 59.0789 156.478 27.6427 98.4043 52.2503C84.2232 58.2314 71.0895 66.8525 60.2106 77.7542C32.4742 105.383 20.5744 147.535 27.6273 185.88C31.9992 210.106 44.9554 232.552 63.5351 248.677ZM61.4268 251.046C26.42 219.623 5.2437 170.106 15.4657 123.087C23.2642 85.5767 50.4769 53.3152 85.4438 37.9809C125.133 19.767 174.019 24.5102 209.448 49.8055C228.232 62.8903 243.274 80.9844 253.731 101.222C279.444 149.416 288.294 213.354 255.942 260.616C241.507 281.661 218.893 297.058 193.886 302.351C143.7 313.523 96.9307 283.414 61.4268 251.046Z" fill="#337A5C"/>
</g>
<defs>
<clipPath id="clip0_98_92">
<rect width="812" height="305" fill="white"/>
</clipPath>
</defs>
</svg>
