<svg width="1240" height="221" viewBox="0 0 1240 221" fill="none" xmlns="http://www.w3.org/2000/svg">
<path d="M4.83216 177.619C3.64687 177.619 2.46155 176.438 2.46155 175.257L3.64685 89.0454L2.46155 2.83354C2.46155 1.65255 3.64687 0.471558 4.83216 0.471558H120.596C121.781 0.471558 122.966 1.65255 122.966 2.83354V26.8469C122.966 28.0279 121.781 29.2088 120.596 29.2088H41.5763L40.391 77.6292H116.645C117.83 77.6292 119.015 78.8102 119.015 79.9912V104.005C119.015 105.186 117.83 106.367 116.645 106.367H40.391L41.5763 175.257C41.5763 176.438 40.391 177.619 39.2057 177.619H4.83216Z" fill="#191919"/>
<path d="M194.874 180.769C152.203 180.769 127.707 154.393 127.707 112.665C127.707 70.937 152.203 43.7743 194.874 43.7743C237.545 43.7743 261.646 70.1496 261.646 111.878C261.646 153.606 237.545 180.769 194.874 180.769ZM194.874 155.574C213.444 155.574 222.531 142.583 222.531 113.059C222.531 83.9278 213.444 69.756 194.479 69.756C175.119 70.1496 166.427 84.3214 166.427 113.452C166.427 142.19 175.909 155.574 194.874 155.574Z" fill="#191919"/>
<path d="M273.104 177.619C271.919 177.619 270.733 176.438 270.733 175.257L271.919 112.271L270.733 49.6793C270.733 48.4983 271.919 47.3173 273.104 47.3173H306.687C307.872 47.3173 309.058 48.4983 309.058 49.6793L307.872 69.3624C318.145 54.0096 335.529 46.53 354.494 46.53C356.47 46.53 358.445 46.9236 360.421 46.9236C361.606 47.3173 362.791 48.4983 362.791 49.6793V73.299C362.791 74.48 361.606 75.2673 360.421 75.2673C358.84 74.8736 357.26 74.8736 355.679 74.8736C328.813 74.8736 308.663 89.8327 309.058 119.751V175.257C309.058 176.438 307.872 177.619 306.687 177.619H273.104Z" fill="#191919"/>
<path d="M453.268 172.502C453.268 173.683 452.083 174.864 451.293 175.651C443.786 178.013 435.489 179.981 427.587 179.981C405.462 179.981 384.521 168.959 384.521 139.434L384.916 74.0861H370.298C369.113 74.0861 367.927 72.9052 367.927 71.7242V49.6791C367.927 48.4981 369.113 47.3172 370.298 47.3172H384.916L384.521 17.0052C384.521 15.8242 385.707 14.6432 386.892 14.6432H420.475C421.661 14.6432 422.846 15.8242 422.846 17.0052L422.451 47.3172H451.293C452.478 47.3172 453.664 48.4981 453.664 49.6791V71.7242C453.664 72.9052 452.478 74.0861 451.293 74.0861H422.056L422.451 138.253C422.451 149.276 427.982 152.818 436.279 152.818C442.206 152.818 447.342 151.637 450.898 150.456C452.083 150.063 453.268 151.244 453.268 152.031V172.502Z" fill="#191919"/>
<path d="M531.893 218.166C531.498 219.347 530.313 220.528 528.732 220.528H497.124C495.939 220.528 495.149 219.347 495.544 218.166L509.372 178.8L456.824 49.2857C456.429 48.1047 457.219 47.3174 458.405 47.3174H496.729C497.915 47.3174 499.1 48.4984 499.89 49.2857L528.337 130.774L552.043 49.6793C552.438 48.4984 553.623 47.3174 554.809 47.3174H588.787C589.972 47.3174 590.763 48.4984 590.367 49.6793L531.893 218.166Z" fill="#191919"/>
<path d="M678.474 172.502C678.474 173.683 677.289 174.864 676.499 175.651C668.992 178.013 660.695 179.981 652.793 179.981C630.667 179.981 609.727 168.959 609.727 139.434L610.122 74.0861H595.504C594.318 74.0861 593.133 72.9052 593.133 71.7242V49.6791C593.133 48.4981 594.318 47.3172 595.504 47.3172H610.122L609.727 17.0052C609.727 15.8242 610.913 14.6432 612.098 14.6432H645.681C646.867 14.6432 648.052 15.8242 648.052 17.0052L647.657 47.3172H676.499C677.684 47.3172 678.869 48.4981 678.869 49.6791V71.7242C678.869 72.9052 677.684 74.0861 676.499 74.0861H647.262L647.657 138.253C647.657 149.276 653.188 152.818 661.485 152.818C667.412 152.818 672.548 151.637 676.104 150.456C677.289 150.063 678.474 151.244 678.474 152.031V172.502Z" fill="#191919"/>
<path d="M797.399 177.619C796.214 177.619 795.028 176.438 794.633 175.257L774.088 79.5976L756.309 175.257C755.914 176.438 754.728 177.619 753.543 177.619H713.638C712.453 177.619 711.268 176.438 710.873 175.257L682.821 49.6793C682.425 48.4984 683.611 47.3174 684.401 47.3174H717.984C719.17 47.3174 720.355 48.4984 720.355 49.6793L734.974 145.339L753.148 49.6793C753.543 48.4984 754.728 47.3174 755.914 47.3174H797.794C798.979 47.3174 800.165 48.4984 800.56 49.6793L817.944 143.764L833.353 49.6793C833.353 48.4984 834.538 47.3174 835.724 47.3174H866.541C867.726 47.3174 868.517 48.4984 868.122 49.6793L840.465 175.257C840.07 176.438 838.884 177.619 837.699 177.619H797.399Z" fill="#191919"/>
<path d="M932.917 180.769C890.247 180.769 865.751 154.393 865.751 112.665C865.751 70.937 890.247 43.7743 932.917 43.7743C975.588 43.7743 999.689 70.1496 999.689 111.878C999.689 153.606 975.588 180.769 932.917 180.769ZM932.917 155.574C951.487 155.574 960.574 142.583 960.574 113.059C960.574 83.9278 951.487 69.756 932.522 69.756C913.162 70.1496 904.47 84.3214 904.47 113.452C904.47 142.19 913.953 155.574 932.917 155.574Z" fill="#191919"/>
<path d="M1006.8 177.619C1005.62 177.619 1004.43 176.438 1004.43 175.257V143.764C1004.43 142.583 1005.62 141.402 1006.8 141.402H1041.96C1043.15 141.402 1044.34 142.583 1044.34 143.764V175.257C1044.34 176.438 1043.15 177.619 1041.96 177.619H1006.8Z" fill="#191919"/>
<path d="M1057.37 34.7201C1056.19 34.7201 1055 33.5391 1055 32.3582V2.83354C1055 1.65255 1056.19 0.471558 1057.37 0.471558H1091.35C1092.54 0.471558 1093.72 1.65255 1093.72 2.83354V32.3582C1093.72 33.5391 1092.54 34.7201 1091.35 34.7201H1057.37ZM1057.37 177.619C1056.19 177.619 1055 176.438 1055 175.257L1055.79 112.665L1055 49.6793C1055 48.4983 1056.19 47.3173 1057.37 47.3173H1091.75C1092.93 47.3173 1094.12 48.4983 1094.12 49.6793L1093.33 112.665L1094.12 175.257C1094.12 176.438 1092.93 177.619 1091.75 177.619H1057.37Z" fill="#191919"/>
<path d="M1170.77 180.769C1128.1 180.769 1103.6 154.393 1103.6 112.665C1103.6 70.937 1128.1 43.7743 1170.77 43.7743C1213.44 43.7743 1237.54 70.1496 1237.54 111.878C1237.54 153.606 1213.44 180.769 1170.77 180.769ZM1170.77 155.574C1189.34 155.574 1198.42 142.583 1198.42 113.059C1198.42 83.9278 1189.34 69.756 1170.37 69.756C1151.01 70.1496 1142.32 84.3214 1142.32 113.452C1142.32 142.19 1151.8 155.574 1170.77 155.574Z" fill="#191919"/>
</svg>
