<?xml version="1.0" encoding="utf-8"?>
<!-- Generator: Adobe Illustrator 27.9.0, SVG Export Plug-In . SVG Version: 6.00 Build 0)  -->
<svg version="1.1" id="Layer_1" xmlns="http://www.w3.org/2000/svg" xmlns:xlink="http://www.w3.org/1999/xlink" x="0px" y="0px"
	 viewBox="0 0 500 151.5" style="enable-background:new 0 0 500 151.5;" xml:space="preserve">
<style type="text/css">
	.st0{fill:#191919;}
</style>
<g>
	<path class="st0" d="M94.3,92.8c-0.3,0-0.6-0.3-0.6-0.6L94,70.3l-0.3-21.9c0-0.3,0.3-0.6,0.6-0.6h29.3c0.3,0,0.6,0.3,0.6,0.6v6.1
		c0,0.3-0.3,0.6-0.6,0.6h-20l-0.3,12.3h19.3c0.3,0,0.6,0.3,0.6,0.6v6.1c0,0.3-0.3,0.6-0.6,0.6h-19.3l0.3,17.5c0,0.3-0.3,0.6-0.6,0.6
		H94.3z"/>
	<path class="st0" d="M142.4,93.6c-10.8,0-17-6.7-17-17.3s6.2-17.5,17-17.5s16.9,6.7,16.9,17.3C159.3,86.7,153.2,93.6,142.4,93.6z
		 M142.4,87.2c4.7,0,7-3.3,7-10.8c0-7.4-2.3-11-7.1-11c-4.9,0.1-7.1,3.7-7.1,11.1C135.2,83.8,137.6,87.2,142.4,87.2z"/>
	<path class="st0" d="M162.2,92.8c-0.3,0-0.6-0.3-0.6-0.6l0.3-16l-0.3-15.9c0-0.3,0.3-0.6,0.6-0.6h8.5c0.3,0,0.6,0.3,0.6,0.6l-0.3,5
		c2.6-3.9,7-5.8,11.8-5.8c0.5,0,1,0.1,1.5,0.1c0.3,0.1,0.6,0.4,0.6,0.7v6c0,0.3-0.3,0.5-0.6,0.5c-0.4-0.1-0.8-0.1-1.2-0.1
		c-6.8,0-11.9,3.8-11.8,11.4v14.1c0,0.3-0.3,0.6-0.6,0.6H162.2z"/>
	<path class="st0" d="M207.8,91.5c0,0.3-0.3,0.6-0.5,0.8c-1.9,0.6-4,1.1-6,1.1c-5.6,0-10.9-2.8-10.9-10.3l0.1-16.6h-3.7
		c-0.3,0-0.6-0.3-0.6-0.6v-5.6c0-0.3,0.3-0.6,0.6-0.6h3.7l-0.1-7.7c0-0.3,0.3-0.6,0.6-0.6h8.5c0.3,0,0.6,0.3,0.6,0.6l-0.1,7.7h7.3
		c0.3,0,0.6,0.3,0.6,0.6v5.6c0,0.3-0.3,0.6-0.6,0.6h-7.4l0.1,16.3c0,2.8,1.4,3.7,3.5,3.7c1.5,0,2.8-0.3,3.7-0.6
		c0.3-0.1,0.6,0.2,0.6,0.4V91.5z"/>
	<path class="st0" d="M227.7,103.1c-0.1,0.3-0.4,0.6-0.8,0.6h-8c-0.3,0-0.5-0.3-0.4-0.6l3.5-10l-13.3-32.9c-0.1-0.3,0.1-0.5,0.4-0.5
		h9.7c0.3,0,0.6,0.3,0.8,0.5l7.2,20.7l6-20.6c0.1-0.3,0.4-0.6,0.7-0.6h8.6c0.3,0,0.5,0.3,0.4,0.6L227.7,103.1z"/>
	<path class="st0" d="M264.8,91.5c0,0.3-0.3,0.6-0.5,0.8c-1.9,0.6-4,1.1-6,1.1c-5.6,0-10.9-2.8-10.9-10.3l0.1-16.6h-3.7
		c-0.3,0-0.6-0.3-0.6-0.6v-5.6c0-0.3,0.3-0.6,0.6-0.6h3.7l-0.1-7.7c0-0.3,0.3-0.6,0.6-0.6h8.5c0.3,0,0.6,0.3,0.6,0.6l-0.1,7.7h7.3
		c0.3,0,0.6,0.3,0.6,0.6v5.6c0,0.3-0.3,0.6-0.6,0.6h-7.4l0.1,16.3c0,2.8,1.4,3.7,3.5,3.7c1.5,0,2.8-0.3,3.7-0.6
		c0.3-0.1,0.6,0.2,0.6,0.4V91.5z"/>
	<path class="st0" d="M294.9,92.8c-0.3,0-0.6-0.3-0.7-0.6L289,67.9l-4.5,24.3c-0.1,0.3-0.4,0.6-0.7,0.6h-10.1
		c-0.3,0-0.6-0.3-0.7-0.6l-7.1-31.9c-0.1-0.3,0.2-0.6,0.4-0.6h8.5c0.3,0,0.6,0.3,0.6,0.6l3.7,24.3l4.6-24.3c0.1-0.3,0.4-0.6,0.7-0.6
		H295c0.3,0,0.6,0.3,0.7,0.6l4.4,23.9l3.9-23.9c0-0.3,0.3-0.6,0.6-0.6h7.8c0.3,0,0.5,0.3,0.4,0.6l-7,31.9c-0.1,0.3-0.4,0.6-0.7,0.6
		H294.9z"/>
	<path class="st0" d="M329.2,93.6c-10.8,0-17-6.7-17-17.3s6.2-17.5,17-17.5c10.8,0,16.9,6.7,16.9,17.3
		C346.1,86.7,340,93.6,329.2,93.6z M329.2,87.2c4.7,0,7-3.3,7-10.8c0-7.4-2.3-11-7.1-11c-4.9,0.1-7.1,3.7-7.1,11.1
		C322,83.8,324.4,87.2,329.2,87.2z"/>
	<path class="st0" d="M347.9,92.8c-0.3,0-0.6-0.3-0.6-0.6v-8c0-0.3,0.3-0.6,0.6-0.6h8.9c0.3,0,0.6,0.3,0.6,0.6v8
		c0,0.3-0.3,0.6-0.6,0.6H347.9z"/>
	<path class="st0" d="M360.7,56.5c-0.3,0-0.6-0.3-0.6-0.6v-7.5c0-0.3,0.3-0.6,0.6-0.6h8.6c0.3,0,0.6,0.3,0.6,0.6v7.5
		c0,0.3-0.3,0.6-0.6,0.6H360.7z M360.7,92.8c-0.3,0-0.6-0.3-0.6-0.6l0.2-15.9l-0.2-16c0-0.3,0.3-0.6,0.6-0.6h8.7
		c0.3,0,0.6,0.3,0.6,0.6l-0.2,16l0.2,15.9c0,0.3-0.3,0.6-0.6,0.6H360.7z"/>
	<path class="st0" d="M389.4,93.6c-10.8,0-17-6.7-17-17.3s6.2-17.5,17-17.5c10.8,0,16.9,6.7,16.9,17.3
		C406.3,86.7,400.2,93.6,389.4,93.6z M389.4,87.2c4.7,0,7-3.3,7-10.8c0-7.4-2.3-11-7.1-11c-4.9,0.1-7.1,3.7-7.1,11.1
		C382.2,83.8,384.6,87.2,389.4,87.2z"/>
</g>
</svg>
