<svg width="1638" height="255" viewBox="0 0 1638 255" fill="none" xmlns="http://www.w3.org/2000/svg">
<mask id="mask0_276_254" style="mask-type:luminance" maskUnits="userSpaceOnUse" x="0" y="0" width="1638" height="255">
<path d="M1637.38 0H0.870117V255H1637.38V0Z" fill="white"/>
</mask>
<g mask="url(#mask0_276_254)">
<mask id="mask1_276_254" style="mask-type:luminance" maskUnits="userSpaceOnUse" x="0" y="0" width="1638" height="255">
<path d="M1637.38 0H0.870117V255H1637.38V0Z" fill="white"/>
</mask>
<g mask="url(#mask1_276_254)">
<path d="M194.971 67.0176L204.703 67.2957L230.843 41.1562L232.233 30.0329C211.377 11.6796 184.125 0.27832 154.371 0.27832C100.145 0.27832 54.5398 36.985 41.1919 87.0395C43.9727 85.0929 50.0905 86.4833 50.0905 86.4833L102.37 77.8629C102.37 77.8629 105.15 73.4136 106.541 73.6917C118.498 60.6219 135.739 52.5575 154.649 52.5575C169.387 52.5575 183.569 58.1191 194.971 67.0176Z" fill="#E64217"/>
</g>
<mask id="mask2_276_254" style="mask-type:luminance" maskUnits="userSpaceOnUse" x="0" y="0" width="1638" height="255">
<path d="M1637.38 0H0.870117V255H1637.38V0Z" fill="white"/>
</mask>
<g mask="url(#mask2_276_254)">
<path d="M267.271 87.0395C261.153 64.793 248.64 45.0493 231.955 30.033L194.97 67.0177C209.709 78.9751 219.163 97.3285 219.163 117.628V124.024C237.239 124.024 251.699 138.763 251.699 156.56C251.699 174.635 236.96 189.095 219.163 189.095H154.092L147.418 195.769V234.978L154.092 241.374H219.163C265.881 241.374 303.978 203.277 303.978 156.56C303.978 127.917 289.518 102.334 267.271 87.0395Z" fill="#008FD3"/>
</g>
<mask id="mask3_276_254" style="mask-type:luminance" maskUnits="userSpaceOnUse" x="0" y="0" width="1638" height="255">
<path d="M1637.38 0H0.870117V255H1637.38V0Z" fill="white"/>
</mask>
<g mask="url(#mask3_276_254)">
<path d="M88.7435 241.652H153.814V189.373H88.7435C84.0162 189.373 79.2888 188.261 75.3957 186.314L65.9409 189.095L39.8013 215.234L37.5767 224.133C51.7588 235.256 69.556 241.652 88.7435 241.652Z" fill="#46AC44"/>
</g>
<mask id="mask4_276_254" style="mask-type:luminance" maskUnits="userSpaceOnUse" x="0" y="0" width="1638" height="255">
<path d="M1637.38 0H0.870117V255H1637.38V0Z" fill="white"/>
</mask>
<g mask="url(#mask4_276_254)">
<path d="M88.7438 72.0227C42.0263 72.0227 3.9292 110.12 3.9292 156.837C3.9292 184.367 16.999 208.838 37.577 224.411L75.396 186.592C63.9946 181.586 56.2084 170.185 56.2084 156.837C56.2084 138.762 70.9467 124.302 88.7438 124.302C101.814 124.302 113.215 132.088 118.498 143.489L156.317 105.67C140.745 85.3706 116.274 72.0227 88.7438 72.0227Z" fill="#FBBF00"/>
</g>
<mask id="mask5_276_254" style="mask-type:luminance" maskUnits="userSpaceOnUse" x="0" y="0" width="1638" height="255">
<path d="M1637.38 0H0.870117V255H1637.38V0Z" fill="white"/>
</mask>
<g mask="url(#mask5_276_254)">
<path d="M1200.23 205.78C1178.54 205.78 1160.19 198.55 1145.45 183.811C1130.99 169.073 1123.76 150.72 1123.76 129.029C1123.76 107.061 1130.99 88.9857 1145.45 74.2474C1159.91 59.5092 1178.26 52.001 1200.23 52.001C1222.48 52.001 1240.55 60.0654 1254.46 76.194L1240.83 89.2638C1230.27 76.4721 1216.64 70.0762 1200.23 70.0762C1183.83 70.0762 1170.2 75.6378 1159.35 86.483C1148.51 97.3281 1143.23 111.51 1143.23 128.751C1143.23 146.27 1148.51 160.174 1159.35 171.02C1170.2 181.865 1184.1 187.426 1200.23 187.426C1217.47 187.426 1232.21 180.196 1245 165.736L1258.91 179.084C1251.96 187.426 1243.34 193.822 1233.32 198.55C1222.76 203.555 1211.91 205.78 1200.23 205.78Z" fill="#77797A"/>
</g>
<mask id="mask6_276_254" style="mask-type:luminance" maskUnits="userSpaceOnUse" x="0" y="0" width="1638" height="255">
<path d="M1637.38 0H0.870117V255H1637.38V0Z" fill="white"/>
</mask>
<g mask="url(#mask6_276_254)">
<path d="M1293.11 55.3379H1274.2V202.721H1293.11V55.3379Z" fill="#77797A"/>
</g>
<mask id="mask7_276_254" style="mask-type:luminance" maskUnits="userSpaceOnUse" x="0" y="0" width="1638" height="255">
<path d="M1637.38 0H0.870117V255H1637.38V0Z" fill="white"/>
</mask>
<g mask="url(#mask7_276_254)">
<path d="M1309.24 152.11C1309.24 136.537 1314.25 123.746 1323.98 113.735C1333.99 103.446 1346.22 98.4402 1361.24 98.4402C1376.26 98.4402 1388.49 103.446 1398.23 113.735C1408.24 123.746 1412.96 136.815 1412.96 152.11C1412.96 167.682 1407.96 180.474 1398.23 190.485C1388.49 200.774 1376.26 205.779 1361.24 205.779C1346.22 205.779 1333.99 200.774 1323.98 190.485C1314.25 180.474 1309.24 167.682 1309.24 152.11ZM1328.15 152.11C1328.15 162.955 1331.21 171.853 1337.6 178.527C1344 185.201 1351.79 188.538 1360.96 188.538C1370.42 188.538 1378.2 185.201 1384.32 178.527C1390.72 171.853 1393.78 162.955 1393.78 152.11C1393.78 141.543 1390.72 132.644 1384.32 125.97C1377.93 119.018 1370.14 115.681 1360.96 115.681C1351.79 115.681 1344 119.018 1337.6 125.97C1331.49 132.922 1328.15 141.543 1328.15 152.11Z" fill="#77797A"/>
</g>
<mask id="mask8_276_254" style="mask-type:luminance" maskUnits="userSpaceOnUse" x="0" y="0" width="1638" height="255">
<path d="M1637.38 0H0.870117V255H1637.38V0Z" fill="white"/>
</mask>
<g mask="url(#mask8_276_254)">
<path d="M1517.52 202.721H1499.45V188.817H1498.61C1495.83 193.822 1491.38 197.993 1485.27 201.052C1479.43 204.389 1473.03 206.058 1466.63 206.058C1454.4 206.058 1444.67 202.443 1438.27 195.491C1431.6 188.539 1428.26 178.25 1428.26 165.458V102.055H1447.17V164.067C1447.45 180.474 1455.79 188.817 1472.2 188.817C1479.7 188.817 1486.1 185.758 1491.11 179.64C1496.11 173.522 1498.61 166.292 1498.61 157.672V102.055H1517.52V202.721Z" fill="#77797A"/>
</g>
<mask id="mask9_276_254" style="mask-type:luminance" maskUnits="userSpaceOnUse" x="0" y="0" width="1638" height="255">
<path d="M1637.38 0H0.870117V255H1637.38V0Z" fill="white"/>
</mask>
<g mask="url(#mask9_276_254)">
<path d="M1581.76 205.78C1568.69 205.78 1557.29 200.496 1547.83 190.207C1538.38 179.64 1533.93 166.848 1533.93 152.11C1533.93 137.372 1538.66 124.58 1547.83 114.013C1557.29 103.446 1568.69 98.4404 1581.76 98.4404C1589.27 98.4404 1595.94 100.109 1602.06 103.168C1608.18 106.227 1612.9 110.398 1616.24 115.681H1617.08L1616.24 101.777V55.3379H1635.15V202.721H1617.08V188.817H1616.24C1612.9 194.1 1608.18 198.271 1602.06 201.33C1595.94 204.389 1588.99 205.78 1581.76 205.78ZM1584.82 188.539C1594.27 188.539 1601.78 185.202 1607.62 178.528C1613.74 171.854 1616.8 162.955 1616.8 152.11C1616.8 141.543 1613.74 132.922 1607.62 125.97C1601.5 119.018 1593.99 115.681 1584.82 115.681C1575.64 115.681 1568.13 119.018 1562.02 125.97C1555.9 132.922 1552.84 141.543 1552.84 152.11C1552.84 162.677 1555.9 171.576 1562.02 178.25C1568.13 185.202 1575.64 188.539 1584.82 188.539Z" fill="#77797A"/>
</g>
<mask id="mask10_276_254" style="mask-type:luminance" maskUnits="userSpaceOnUse" x="0" y="0" width="1638" height="255">
<path d="M1637.38 0H0.870117V255H1637.38V0Z" fill="white"/>
</mask>
<g mask="url(#mask10_276_254)">
<path d="M493.351 205.78C447.468 205.78 408.814 168.517 408.814 122.633C408.814 76.7501 447.468 39.4873 493.351 39.4873C518.656 39.4873 536.732 49.4983 550.358 62.5681L534.229 78.6967C524.496 69.52 511.426 62.5681 493.351 62.5681C459.981 62.5681 433.564 89.5418 433.564 123.19C433.564 156.559 459.703 183.811 493.351 183.811C515.041 183.811 527.555 175.191 535.341 167.126C541.737 160.73 546.186 151.276 547.577 138.484H492.517V115.681H569.545C570.379 119.853 570.657 124.58 570.657 129.864C570.657 146.826 565.93 167.961 550.914 182.977C536.732 197.715 518.1 205.78 493.351 205.78Z" fill="#77797A"/>
</g>
<mask id="mask11_276_254" style="mask-type:luminance" maskUnits="userSpaceOnUse" x="0" y="0" width="1638" height="255">
<path d="M1637.38 0H0.870117V255H1637.38V0Z" fill="white"/>
</mask>
<g mask="url(#mask11_276_254)">
<path d="M686.339 152.11C686.339 182.977 662.146 205.779 632.669 205.779C603.193 205.779 579 182.977 579 152.11C579 120.965 603.193 98.4402 632.669 98.4402C662.424 98.7183 686.339 121.243 686.339 152.11ZM662.98 152.11C662.98 132.922 649.076 119.574 632.669 119.574C616.54 119.574 602.358 132.644 602.358 152.11C602.358 171.297 616.262 184.645 632.669 184.645C648.798 184.645 662.98 171.297 662.98 152.11Z" fill="#77797A"/>
</g>
<mask id="mask12_276_254" style="mask-type:luminance" maskUnits="userSpaceOnUse" x="0" y="0" width="1638" height="255">
<path d="M1637.38 0H0.870117V255H1637.38V0Z" fill="white"/>
</mask>
<g mask="url(#mask12_276_254)">
<path d="M803.411 152.11C803.411 182.977 779.218 205.779 749.741 205.779C720.265 205.779 696.072 182.977 696.072 152.11C696.072 120.965 720.265 98.4402 749.741 98.4402C779.218 98.7183 803.411 121.243 803.411 152.11ZM779.774 152.11C779.774 132.922 765.87 119.574 749.463 119.574C733.335 119.574 719.152 132.644 719.152 152.11C719.152 171.297 733.057 184.645 749.463 184.645C765.87 184.645 779.774 171.297 779.774 152.11Z" fill="#77797A"/>
</g>
<mask id="mask13_276_254" style="mask-type:luminance" maskUnits="userSpaceOnUse" x="0" y="0" width="1638" height="255">
<path d="M1637.38 0H0.870117V255H1637.38V0Z" fill="white"/>
</mask>
<g mask="url(#mask13_276_254)">
<path d="M915.199 101.777V197.993C915.199 237.481 891.84 253.887 864.31 253.887C838.449 253.887 822.598 236.368 816.759 222.186L837.337 213.566C840.952 222.186 849.85 232.753 864.31 232.753C881.83 232.753 892.953 221.908 892.953 201.33V193.544H892.119C886.835 199.94 876.824 205.779 864.032 205.779C837.337 205.779 812.587 182.421 812.587 152.388C812.587 122.077 837.059 98.4402 864.032 98.4402C876.824 98.4402 886.835 104.002 892.119 110.398H892.953V101.777H915.199ZM894.343 152.388C894.343 133.478 881.83 119.574 865.701 119.574C849.572 119.574 835.946 133.478 835.946 152.388C835.946 171.019 849.572 184.645 865.701 184.645C881.83 184.645 894.343 171.019 894.343 152.388Z" fill="#77797A"/>
</g>
<mask id="mask14_276_254" style="mask-type:luminance" maskUnits="userSpaceOnUse" x="0" y="0" width="1638" height="255">
<path d="M1637.38 0H0.870117V255H1637.38V0Z" fill="white"/>
</mask>
<g mask="url(#mask14_276_254)">
<path d="M955.799 45.0488H932.162V202.721H955.799V45.0488Z" fill="#77797A"/>
</g>
<mask id="mask15_276_254" style="mask-type:luminance" maskUnits="userSpaceOnUse" x="0" y="0" width="1638" height="255">
<path d="M1637.38 0H0.870117V255H1637.38V0Z" fill="white"/>
</mask>
<g mask="url(#mask15_276_254)">
<path d="M1047.01 169.907L1065.36 182.142C1059.52 190.763 1045.34 205.779 1020.59 205.779C990.282 205.779 967.479 182.142 967.479 152.11C967.479 120.13 990.282 98.4402 1018.09 98.4402C1045.9 98.4402 1059.52 120.687 1063.97 132.644L1066.48 138.762L994.731 168.516C1000.29 179.362 1008.63 184.645 1020.59 184.645C1032.55 184.645 1040.89 178.805 1047.01 169.907ZM990.56 150.719L1038.39 130.698C1035.89 124.024 1027.82 119.296 1018.37 119.296C1006.69 119.296 990.004 129.863 990.56 150.719Z" fill="#77797A"/>
</g>
</g>
</svg>
