<svg width="807" height="182" viewBox="0 0 807 182" fill="black" xmlns="http://www.w3.org/2000/svg">
<g clip-path="url(#clip0_88_62)">
<path d="M670.846 29.4299C679.192 29.4299 685.542 23.0721 685.542 14.7276C685.542 6.38311 679.192 0.0253906 670.846 0.0253906C662.506 0.0253906 656.149 6.38311 656.149 14.7276C656.149 22.6747 662.903 29.4299 670.846 29.4299Z" fill="black"/>
<path d="M133.824 46.0912H114.758C108.8 46.0912 108.006 46.8859 101.253 53.641L40.0838 115.231V18.6736C40.481 16.2894 38.495 13.9053 36.1118 13.5079C35.7146 13.5079 35.3173 13.5079 34.9201 13.5079H5.52702C3.1438 13.1106 0.760568 15.0974 0.363364 17.4815C0.363364 17.8788 0.363364 18.2762 0.363364 18.6736V31.7864C-0.0338402 34.1705 1.95218 36.5546 4.33541 36.952C4.73261 36.952 5.12982 36.952 5.52702 36.952H16.2515V156.159H5.52702C3.1438 155.762 0.760568 157.748 0.363364 160.133C0.363364 160.53 0.363364 160.928 0.363364 161.325V174.438C-0.0338402 176.822 1.95218 179.206 4.33541 179.603C4.73261 179.603 5.12982 179.603 5.52702 179.603H50.0139C52.3971 180.001 54.7804 178.411 55.1776 176.027C55.1776 175.63 55.1776 175.232 55.1776 174.835V161.325C55.5748 158.941 53.5888 156.556 51.2055 156.159C50.8083 156.159 50.4111 156.159 50.0139 156.159H39.6866V146.225L62.7245 122.781L103.239 172.054C108.403 178.809 108.403 178.809 116.347 178.809H133.824C136.207 179.206 138.59 177.219 138.59 174.835C138.59 174.438 138.59 174.04 138.59 173.643V161.325C138.987 158.941 137.002 156.556 134.618 156.159C134.221 156.159 133.824 156.159 133.427 156.159H119.127L79.0099 106.489L115.552 69.1379H133.427C135.81 69.535 137.796 67.5487 138.193 65.1645C138.193 64.767 138.193 64.3697 138.193 64.3697V50.8595C138.59 48.4754 137.002 46.0912 134.221 45.6939C134.619 46.0912 134.221 46.0912 133.824 46.0912Z" fill="black"/>
<path d="M291.132 156.172H280.407V99.3505C280.407 65.5746 258.958 43.7202 225.99 43.7202C212.088 43.3228 198.583 48.0911 188.256 57.6277V51.27C188.653 48.8858 186.667 46.5017 184.284 46.5017C183.887 46.5017 183.49 46.5017 183.092 46.5017H154.494C152.111 46.1044 149.727 47.6938 149.33 50.4753C149.33 50.8726 149.33 51.27 149.33 51.6673V64.7802C148.933 67.1645 150.919 69.5487 153.302 69.9458C153.699 69.9458 154.097 69.9458 154.494 69.9458H165.218V156.57H154.494C152.111 156.172 149.727 158.159 149.33 160.543C149.33 160.941 149.33 161.338 149.33 161.736V174.848C149.33 177.232 150.919 179.616 153.699 179.616C154.097 179.616 154.097 179.616 154.494 179.616H198.98C201.364 180.014 203.747 178.027 204.144 175.643C204.144 175.245 204.144 174.848 204.144 174.848V161.338C204.542 158.954 202.555 156.57 200.172 156.172C199.775 156.172 199.378 156.172 198.98 156.172H188.653V103.324C188.653 81.469 203.747 65.9724 224.799 65.9724C245.851 65.9724 257.37 79.0848 257.37 101.734V156.172H246.645C244.262 155.775 241.878 157.761 241.878 160.543C241.878 160.941 241.878 161.338 241.878 161.736V174.848C241.481 177.232 243.468 179.616 245.851 180.014C246.248 180.014 246.645 180.014 247.043 180.014H291.529C293.912 180.411 296.296 178.424 296.693 176.04C296.693 175.643 296.693 175.245 296.693 174.848V161.338C297.09 158.954 295.104 156.57 292.721 156.172C291.927 156.172 291.529 156.172 291.132 156.172Z" fill="black"/>
<path d="M363.797 43.748C326.063 43.748 295.875 74.3444 295.875 111.696C295.875 112.094 295.875 112.491 295.875 113.286C295.08 150.637 324.871 181.234 362.208 182.029C362.605 182.029 363.003 182.029 363.4 182.029C401.134 182.029 431.719 151.432 431.719 114.08C431.719 113.683 431.719 113.286 431.719 112.888C432.513 75.5365 402.723 44.9401 365.386 44.1454C364.591 43.748 364.194 43.748 363.797 43.748ZM363.797 159.379C339.17 159.379 320.104 138.716 320.104 112.491C320.104 86.2654 338.773 66.3975 363.4 66.3975C388.026 66.3975 407.489 87.0597 407.489 113.286C407.489 139.511 388.424 159.379 363.797 159.379Z" fill="black"/>
<path d="M629.137 46.119H583.459C581.076 45.7217 578.692 47.3111 578.295 50.0926C578.295 50.4899 578.295 50.8873 578.295 51.2847V64.3975C577.898 66.7817 579.884 69.1659 582.267 69.563C582.664 69.563 583.061 69.563 583.459 69.563H593.786L571.94 139.896L540.958 50.0926C540.163 47.7085 537.781 46.119 535.397 46.119H526.261C523.878 46.119 521.495 47.7085 520.7 50.0926L490.116 139.896L468.27 69.1659H478.597C480.98 69.563 483.363 67.5766 483.76 65.1924C483.76 64.7948 483.76 64.3975 483.76 64.0001V50.8873C484.157 48.5032 482.172 46.119 479.788 46.119C479.391 46.119 478.994 46.119 478.597 46.119H432.521C430.138 45.7217 427.754 47.7085 427.357 50.0926C427.357 50.4899 427.357 50.8873 427.357 50.8873V64.0001C426.96 66.3845 428.946 68.7687 431.329 69.1659C431.727 69.1659 432.124 69.1659 432.124 69.1659H442.849L478.994 175.657C479.788 178.042 482.172 179.631 484.555 179.631H494.485C496.868 179.631 499.251 178.042 500.046 175.657L530.233 88.2388L560.421 175.657C561.215 178.042 563.599 179.631 565.982 179.631H575.912C578.295 179.631 580.679 178.042 581.473 175.657L618.015 69.1659H628.74C631.123 69.563 633.507 67.5766 633.904 65.1924C633.904 64.7948 633.904 64.3975 633.904 64.3975V51.2847C634.301 48.9006 632.315 46.5164 629.932 46.5164C629.932 46.119 629.535 46.119 629.137 46.119Z" fill="black"/>
<path d="M693.875 156.187H683.15V51.284C683.547 48.8999 681.558 46.5157 679.179 46.5157C678.782 46.5157 678.379 46.5157 678.379 46.5157H648.989C646.606 46.1183 644.222 48.1051 644.222 50.4893C644.222 50.8867 644.222 51.284 644.222 51.6814V64.7941C643.825 67.1781 645.812 69.5623 648.195 69.9595C648.592 69.9595 648.989 69.9595 649.387 69.9595H660.108V156.584H640.648C638.264 156.187 635.882 158.173 635.484 160.557C635.484 160.955 635.484 161.352 635.484 161.749V174.862C635.087 177.247 637.073 179.631 639.456 180.028C639.854 180.028 640.251 180.028 640.648 180.028H693.875C696.254 180.425 698.64 178.439 699.036 176.054C699.036 175.657 699.036 175.259 699.036 174.862V161.352C699.433 158.968 697.45 156.584 695.065 156.187C694.668 156.187 694.272 156.187 693.875 156.187Z" fill="black"/>
<path d="M797.154 111.689H784.44C782.061 111.292 779.676 113.279 779.279 115.663C779.279 116.061 779.279 116.458 779.279 116.855V141.491C779.676 150.63 772.526 158.578 763.387 158.975C750.679 158.975 745.115 153.809 745.115 141.094V69.5695H776.101C778.486 69.9666 780.865 67.9802 781.262 65.596C781.262 65.1989 781.262 64.8013 781.262 64.4039V51.2912C781.658 48.907 779.676 46.5228 777.29 46.5228C776.894 46.5228 776.497 46.5228 776.497 46.5228H745.518V19.1052C745.915 16.721 744.322 14.3369 741.547 13.9396C741.144 13.9396 740.747 13.9396 740.351 13.9396H726.85C724.465 13.5422 722.079 15.5289 721.683 17.9131C721.683 18.3105 721.683 18.7078 721.683 19.1052V46.9202H707.383C705.004 46.5229 702.618 48.5096 702.618 50.8938C702.618 51.2912 702.618 51.2912 702.618 51.6885V64.8013C702.222 67.1853 704.204 69.5695 706.59 69.9666C706.986 69.9666 707.383 69.9666 707.779 69.9666H722.079V142.683C722.079 166.525 737.569 182.021 761.801 182.021C786.826 182.021 802.712 166.922 802.712 143.876V117.252C803.108 114.869 801.126 112.484 798.74 112.087C798.344 111.689 797.947 111.689 797.154 111.689Z" fill="black"/>
</g>
<defs>
<clipPath id="clip0_88_62">
<rect width="806" height="182" fill="black" transform="translate(0.3125)"/>
</clipPath>
</defs>
</svg>
