<svg viewBox="0 0 941 453" fill="none" xmlns="http://www.w3.org/2000/svg">
<path d="M114.952 188.416C104.259 189.084 93.5653 183.071 89.5554 173.049L76.8572 141.646C68.8374 122.27 61.4858 121.602 52.1293 119.597C46.1143 118.261 40.7678 117.593 34.7528 117.593V187.08H23.3913C11.3615 188.416 0.668324 179.73 0 167.704V17.3717C14.7031 13.3628 29.4062 11.3584 44.7777 10.6903H64.1591C98.9119 10.6903 121.635 31.4027 121.635 60.8009C121.635 84.854 106.263 104.23 85.5455 106.903C95.5703 112.248 102.922 120.934 106.932 131.624L120.967 164.363C123.64 171.044 127.65 177.058 131.66 182.403C127.65 187.08 124.308 188.416 114.952 188.416ZM50.1243 41.4248C44.7777 41.4248 39.4311 42.0929 34.7528 43.4292V89.531C43.441 90.8672 51.4609 91.5354 60.1491 90.8673C74.1839 90.8673 86.2138 82.8496 86.2138 66.8142C86.2138 45.4336 75.5206 41.4248 60.1491 41.4248H50.1243ZM186.462 132.96H163.739C166.413 150.332 182.452 161.022 202.502 161.022C216.537 161.022 233.245 158.35 244.607 148.327H245.943V159.018C245.943 176.389 233.913 189.752 196.487 189.752C159.061 189.752 128.986 159.018 128.986 121.602V120.265C128.986 75.5 157.056 46.7699 195.819 46.7699C225.225 45.4336 249.953 68.8186 250.621 97.5487V100.221C250.621 125.611 231.908 133.628 186.462 132.96ZM193.146 75.5C177.106 75.5 164.408 88.8628 164.408 104.898V109.575H179.111C211.19 109.575 219.21 106.235 219.21 96.2124C219.21 82.1814 208.517 75.5 193.146 75.5ZM327.479 190.42C291.389 190.42 263.32 159.018 263.32 120.934C263.32 76.1681 285.374 46.7699 325.474 46.7699C332.536 47.0154 339.407 49.1221 345.393 52.8767C351.378 56.6312 356.265 61.9004 359.558 68.1504V4.00885H370.251C381.613 2.67257 392.306 10.6903 393.643 22.7168V124.274C393.643 163.695 374.93 190.42 327.479 190.42ZM325.474 75.5C308.097 75.5 296.736 92.2035 296.736 114.252C296.736 142.982 311.439 161.022 331.489 161.022C351.538 161.022 358.89 146.991 358.89 121.602C358.89 88.1947 344.187 75.5 325.474 75.5ZM478.52 190.42C471.477 190.425 464.556 188.575 458.456 185.056C452.355 181.537 447.289 176.474 443.767 170.376V231.177H433.074C420.376 231.177 409.683 221.155 409.014 208.46V123.606C409.683 78.1726 429.732 46.7699 478.52 46.7699C514.609 46.7699 540.674 80.177 540.674 114.252C540.674 158.35 518.619 190.42 478.52 190.42ZM473.173 76.8363C454.46 76.8363 443.767 92.8717 443.767 116.925C443.767 144.319 457.134 159.686 477.852 159.686C494.56 159.686 505.921 144.987 505.921 122.938C505.253 90.8672 494.56 76.8363 473.173 76.8363ZM573.422 40.0885C562.06 40.0885 553.372 31.4027 553.372 20.0442C553.372 8.68584 562.06 0 573.422 0C584.783 0 593.472 8.68584 593.472 20.0442C593.472 31.4027 584.783 40.0885 573.422 40.0885ZM597.482 188.416C570.749 188.416 556.714 173.717 556.714 145.655V52.7832H566.07C581.442 52.7832 590.798 60.8009 590.798 78.1726V142.314C590.798 156.345 596.813 160.354 611.516 160.354H618.2V167.704C618.2 182.403 612.185 188.416 597.482 188.416ZM672.334 188.416C644.264 188.416 628.893 173.717 628.893 145.655V4.00885H638.249C655.626 4.00885 662.977 14.031 662.977 26.7257V142.314C662.977 156.345 670.329 160.354 686.369 160.354H695.725V167.704C695.057 182.403 687.037 188.416 672.334 188.416ZM747.186 188.416C719.116 188.416 703.745 173.717 703.745 145.655V4.00885H713.102C730.478 4.00885 737.83 14.031 737.83 26.7257V142.314C737.83 156.345 745.181 160.354 761.221 160.354H770.577V167.704C770.577 182.403 762.558 188.416 747.186 188.416ZM310.102 411.575H296.736C255.968 411.575 233.245 388.858 233.245 346.765V235.186H247.28C261.315 235.186 268.666 243.204 268.666 260.575V344.093C268.666 370.819 274.681 380.173 300.746 380.173H309.434C321.787 380.349 334.053 378.078 345.523 373.491V385.518C346.86 401.553 338.84 411.575 310.102 411.575ZM374.261 263.248C362.9 263.248 354.212 254.562 354.212 243.204C354.212 231.845 362.9 223.159 374.261 223.159C385.623 223.159 394.311 231.845 394.311 243.204C394.311 254.562 385.623 263.248 374.261 263.248ZM400.326 410.907C373.593 410.907 359.558 396.208 359.558 368.146V275.274H369.583C384.955 275.274 394.311 283.292 394.311 300.664V364.805C394.311 378.836 400.326 382.845 415.029 382.845H421.712V390.195C420.376 405.562 414.361 410.907 400.326 410.907ZM544.684 409.571C529.312 409.571 519.956 399.549 519.956 387.522V332.734C519.956 309.35 509.931 299.327 491.886 299.327C477.183 299.327 467.158 310.686 467.158 330.062V409.571H457.134C445.104 410.239 434.411 401.553 433.074 388.858V327.389C433.074 298.659 451.787 268.593 495.228 268.593C527.308 268.593 554.04 289.973 554.04 329.394V409.571H544.684ZM642.259 412.911C628.224 412.911 614.858 404.894 607.506 392.867V453.668H596.813C584.115 453.668 573.422 443.646 572.754 430.951V346.765C572.754 301.332 592.803 269.929 641.591 269.929C677.68 269.929 703.745 303.336 703.745 337.411C703.745 380.841 681.69 412.911 642.259 412.911ZM636.244 299.327C617.531 299.327 606.838 315.363 606.838 339.416C606.838 366.81 620.205 382.177 640.923 382.177C657.631 382.177 668.992 367.478 668.992 345.429C668.992 313.358 658.299 299.327 636.244 299.327ZM797.31 306.009C791.295 303.336 783.944 302 777.261 302C761.889 302 753.869 310.686 753.869 331.398V410.239H744.513C729.141 410.239 719.785 402.889 719.785 388.19V324.717C719.785 297.323 734.488 271.265 770.577 271.265C791.964 271.265 799.315 283.292 799.315 293.314V305.341L797.31 306.009ZM876.173 269.261C832.063 269.261 808.004 302.668 808.004 343.425C808.004 380.173 832.063 412.911 872.831 412.911C916.94 412.911 941 380.173 941 338.748C941 302.668 917.609 269.261 876.173 269.261ZM887.534 293.982C876.173 294.65 865.479 297.991 855.455 302.668C830.727 314.695 826.717 331.398 828.053 322.044C832.732 289.973 860.133 283.96 876.841 285.965C886.866 287.969 890.876 293.314 887.534 293.982Z" fill="#D04F4C"/>
</svg>