<svg width="669" height="323" viewBox="0 0 669 323" fill="none" xmlns="http://www.w3.org/2000/svg">
<g clip-path="url(#clip0_58_19)">
<path d="M81.7246 134.049C74.1225 134.525 66.5199 130.247 63.669 123.116L54.6413 100.775C48.9397 86.9894 43.7131 86.5142 37.0611 85.0877C32.7848 84.1372 28.9837 83.662 24.7074 83.662V133.099H16.6299C8.07741 134.049 0.475142 127.87 0 119.314V12.3592C10.4531 9.50701 20.9062 8.08098 31.8345 7.60565H45.6136C70.321 7.60565 86.4759 22.3416 86.4759 43.257C86.4759 60.3697 75.5472 74.1548 60.8182 76.0565C67.9453 79.8593 73.172 86.0389 76.0229 93.6444L86.001 116.937C87.9013 121.69 90.7522 125.969 93.6031 129.771C90.7522 133.099 88.3763 134.049 81.7246 134.049ZM35.6357 29.4718C31.8345 29.4718 28.0334 29.9472 24.7074 30.8979V63.6972C30.8842 64.6478 36.5859 65.1232 42.7628 64.6479C52.7407 64.6479 61.2933 58.9437 61.2933 47.5352C61.2933 32.3239 53.6911 29.4718 42.7628 29.4718H35.6357ZM132.564 94.5949H116.41C118.311 106.954 129.713 114.56 143.968 114.56C153.946 114.56 165.825 112.659 173.902 105.528H174.852V113.134C174.852 125.493 166.299 135 139.692 135C113.084 135 91.702 113.134 91.702 86.5142V85.563C91.702 53.7148 111.658 33.2746 139.217 33.2746C160.123 32.3239 177.703 48.9612 178.178 69.4014V71.3026C178.178 89.3664 164.874 95.0701 132.564 94.5949ZM137.316 53.7148C125.913 53.7148 116.885 63.2218 116.885 74.6301V77.9575H127.338C150.145 77.9575 155.846 75.5813 155.846 68.4507C155.846 58.4683 148.244 53.7148 137.316 53.7148ZM232.82 135.475C207.162 135.475 187.206 113.134 187.206 86.0389C187.206 54.1901 202.885 33.2746 231.394 33.2746C236.415 33.4493 241.3 34.9481 245.556 37.6193C249.811 40.2905 253.285 44.0393 255.626 48.4859V2.85211H263.228C271.306 1.90141 278.908 7.60565 279.859 16.162V88.4152C279.859 116.461 266.555 135.475 232.82 135.475ZM231.394 53.7148C219.04 53.7148 210.963 65.5985 210.963 81.285C210.963 101.725 221.416 114.56 235.671 114.56C249.924 114.56 255.151 104.577 255.151 86.5142C255.151 62.7464 244.698 53.7148 231.394 53.7148ZM340.202 135.475C335.195 135.479 330.274 134.162 325.937 131.659C321.6 129.155 317.998 125.553 315.494 121.215V164.472H307.892C298.865 164.472 291.262 157.342 290.787 148.31V87.94C291.262 55.6162 305.516 33.2746 340.202 33.2746C365.859 33.2746 384.39 57.0422 384.39 81.285C384.39 112.659 368.71 135.475 340.202 135.475ZM336.4 54.6655C323.096 54.6655 315.494 66.0739 315.494 83.1867C315.494 102.676 324.997 113.609 339.727 113.609C351.605 113.609 359.682 103.152 359.682 87.4647C359.207 64.6478 351.605 54.6655 336.4 54.6655ZM407.672 28.5211C399.594 28.5211 393.417 22.3416 393.417 14.2605C393.417 6.17957 399.594 0 407.672 0C415.749 0 421.926 6.17957 421.926 14.2605C421.926 22.3416 415.749 28.5211 407.672 28.5211ZM424.777 134.049C405.772 134.049 395.793 123.592 395.793 103.627V37.5528H402.445C413.374 37.5528 420.025 43.257 420.025 55.6162V101.25C420.025 111.232 424.302 114.084 434.755 114.084H439.507V119.314C439.507 129.771 435.23 134.049 424.777 134.049ZM477.993 134.049C458.037 134.049 447.109 123.592 447.109 103.627V2.85211H453.76C466.115 2.85211 471.341 9.98241 471.341 19.0141V101.25C471.341 111.232 476.568 114.084 487.971 114.084H494.623V119.314C494.148 129.771 488.446 134.049 477.993 134.049ZM531.209 134.049C511.252 134.049 500.325 123.592 500.325 103.627V2.85211H506.977C519.33 2.85211 524.557 9.98241 524.557 19.0141V101.25C524.557 111.232 529.783 114.084 541.187 114.084H547.838V119.314C547.838 129.771 542.137 134.049 531.209 134.049ZM220.466 292.817H210.963C181.979 292.817 165.825 276.654 165.825 246.707V167.324H175.803C185.781 167.324 191.007 173.028 191.007 185.387V244.806C191.007 263.821 195.283 270.476 213.814 270.476H219.991C228.773 270.601 237.494 268.985 245.648 265.722V274.278C246.599 285.686 240.897 292.817 220.466 292.817ZM266.079 187.289C258.002 187.289 251.826 181.109 251.826 173.028C251.826 164.947 258.002 158.767 266.079 158.767C274.157 158.767 280.334 164.947 280.334 173.028C280.334 181.109 274.157 187.289 266.079 187.289ZM284.61 292.341C265.604 292.341 255.626 281.884 255.626 261.919V195.845H262.753C273.682 195.845 280.334 201.549 280.334 213.909V259.542C280.334 269.524 284.61 272.377 295.063 272.377H299.814V277.606C298.865 288.539 294.588 292.341 284.61 292.341ZM387.241 291.391C376.312 291.391 369.661 284.261 369.661 275.704V236.725C369.661 220.088 362.533 212.957 349.704 212.957C339.251 212.957 332.124 221.039 332.124 234.824V291.391H324.997C316.445 291.866 308.843 285.686 307.892 276.654V232.922C307.892 212.482 321.196 191.091 352.08 191.091C374.887 191.091 393.892 206.302 393.892 234.349V291.391H387.241ZM456.611 293.767C446.633 293.767 437.131 288.063 431.904 279.507V322.764H424.302C415.274 322.764 407.672 315.634 407.197 306.602V246.707C407.197 214.384 421.451 192.042 456.136 192.042C481.794 192.042 500.325 215.81 500.325 240.052C500.325 270.951 484.645 293.767 456.611 293.767ZM452.335 212.957C439.031 212.957 431.429 224.366 431.429 241.479C431.429 260.968 440.932 271.901 455.661 271.901C467.54 271.901 475.617 261.444 475.617 245.757C475.617 222.94 468.015 212.957 452.335 212.957ZM566.844 217.711C562.568 215.81 557.342 214.859 552.59 214.859C541.662 214.859 535.96 221.039 535.96 235.774V291.866H529.308C518.38 291.866 511.728 286.637 511.728 276.179V231.021C511.728 211.532 522.181 192.993 547.838 192.993C563.043 192.993 568.27 201.549 568.27 208.679V217.236L566.844 217.711ZM622.911 191.567C591.552 191.567 574.447 215.334 574.447 244.331C574.447 270.475 591.552 293.767 620.536 293.767C651.895 293.767 669 270.475 669 241.004C669 215.334 652.37 191.567 622.911 191.567ZM630.989 209.155C622.911 209.63 615.309 212.007 608.182 215.334C590.602 223.891 587.751 235.774 588.701 229.119C592.027 206.302 611.508 202.024 623.386 203.451C630.514 204.877 633.365 208.679 630.989 209.155Z" fill="#D04F4C"/>
</g>
<defs>
<clipPath id="clip0_58_19">
<rect width="669" height="323" fill="white"/>
</clipPath>
</defs>
</svg>
