<svg width="1688" height="257" viewBox="0 0 1688 257" fill="none" xmlns="http://www.w3.org/2000/svg">
<g clip-path="url(#clip0_160_171)">
<path d="M358.602 0C320.317 0 292.971 27.3404 292.971 65.617V164.043C292.971 202.319 320.317 229.66 358.602 229.66H484.395V174.979H358.602C358.164 174.979 357.7 174.979 357.235 174.979C351.957 174.979 347.663 170.686 347.663 165.41C347.663 164.972 347.663 164.507 347.663 164.043V65.617C347.663 65.1796 347.663 64.7148 347.663 64.25C347.663 58.9733 351.957 54.6808 357.235 54.6808C357.672 54.6808 358.137 54.6808 358.602 54.6808H446.11C478.926 54.6808 500.803 32.8085 500.803 0H446.11H358.602Z" fill="#021E40"/>
<path d="M205.462 0H79.669C46.8534 0 24.9763 21.8723 24.9763 54.6808H79.669H205.462C238.278 54.6808 260.155 32.8085 260.155 0H205.462Z" fill="#021E40"/>
<path d="M1091.48 0C1058.67 0 1036.79 21.8723 1036.79 54.6808H1091.48H1206.34C1239.16 54.6808 1261.03 32.8085 1261.03 0H1206.34H1091.48Z" fill="#021E40"/>
<path d="M648.473 87.4894H593.781H550.026C549.562 87.4894 549.097 87.4894 548.659 87.4894C543.381 87.4894 539.088 91.6178 539.088 96.7031C539.088 97.1405 539.088 97.578 539.088 98.0154V229.66H593.781V142.17H648.473H703.166C703.166 109.362 681.289 87.4894 648.473 87.4894Z" fill="#021E40"/>
<path d="M714.105 0H593.781C560.965 0 539.088 21.8723 539.088 54.6808H593.781H714.105C714.542 54.6808 715.007 54.6808 715.472 54.6808C720.75 54.6808 725.043 58.9733 725.043 64.25C725.043 64.6874 725.043 65.1522 725.043 65.617V185.915C725.043 218.723 746.92 240.596 779.736 240.596V185.915V65.617C779.736 27.3404 752.39 0 714.105 0Z" fill="#021E40"/>
<path d="M898.693 174.979C893.415 174.979 889.121 170.686 889.121 165.41C889.121 164.972 889.121 164.507 889.121 164.043V54.6808C889.121 21.8723 867.244 0 834.429 0V54.6808V164.043C834.429 202.319 861.775 229.66 900.06 229.66H1009.45V174.979H900.06C899.622 174.979 899.158 174.979 898.693 174.979Z" fill="#021E40"/>
<path d="M199.993 87.4894H79.6692H24.9764C24.9764 120.298 46.8535 142.17 79.6692 142.17H199.993C200.431 142.17 200.896 142.17 201.36 142.17C206.638 142.17 210.932 146.463 210.932 151.739C210.932 152.177 210.932 153.106 210.932 153.106V164.043C210.932 164.48 210.932 164.945 210.932 165.41C210.932 170.686 206.638 174.979 201.36 174.979C200.923 174.979 199.993 174.979 199.993 174.979H63.2613C30.4457 174.979 8.5686 196.851 8.5686 229.66H63.2613H199.993C238.278 229.66 265.624 202.319 265.624 164.043V153.106C265.624 114.83 238.278 87.4894 199.993 87.4894Z" fill="#021E40"/>
<path d="M1101.06 174.979C1095.78 174.979 1091.48 170.686 1091.48 165.41C1091.48 164.972 1091.48 164.507 1091.48 164.043V142.17H1143.44C1176.26 142.17 1198.14 120.298 1198.14 87.4894H1143.44H1091.48H1047.73C1047.27 87.4894 1046.8 87.4894 1046.36 87.4894C1041.09 87.4894 1036.79 91.7818 1036.79 97.0585C1036.79 97.5233 1036.79 97.9881 1036.79 98.4256V164.043C1036.79 202.319 1064.14 229.66 1102.42 229.66H1244.62V174.979H1102.42C1101.99 174.979 1101.52 174.979 1101.06 174.979Z" fill="#021E40"/>
<path d="M1660.29 0H1359.48V54.6808H1660.29V0Z" fill="#021E40"/>
<path d="M1633.49 87.4894H1569.5C1542.7 87.4894 1523.56 106.628 1523.56 133.421V183.728C1523.56 210.521 1542.7 229.66 1569.5 229.66H1585.63L1600.81 244.834C1617.05 261.074 1638.71 261.074 1654.96 244.834L1639.42 229.304C1663.05 226.679 1679.43 208.498 1679.43 183.728V133.421C1679.43 106.628 1660.29 87.4894 1633.49 87.4894ZM1641.15 183.728C1641.15 184.056 1641.15 184.357 1641.15 184.685C1641.15 188.376 1638.14 191.383 1634.45 191.383C1634.15 191.383 1633.82 191.383 1633.49 191.383H1601.49H1569.5C1569.17 191.383 1568.87 191.383 1568.54 191.383C1564.85 191.383 1561.84 188.376 1561.84 184.685C1561.84 184.384 1561.84 184.056 1561.84 183.728V133.421C1561.84 133.093 1561.84 132.792 1561.84 132.464C1561.84 128.773 1564.85 125.766 1568.54 125.766C1568.84 125.766 1569.17 125.766 1569.5 125.766H1633.49C1633.82 125.766 1634.12 125.766 1634.45 125.766C1638.14 125.766 1641.15 128.773 1641.15 132.464C1641.15 132.765 1641.15 133.093 1641.15 133.421V183.728Z" fill="#F05423"/>
<path d="M1496.21 133.421C1496.21 106.628 1477.07 87.4894 1450.27 87.4894H1378.62C1355.65 87.4894 1340.34 102.8 1340.34 125.766H1378.62H1450.27C1450.6 125.766 1450.9 125.766 1451.23 125.766C1454.92 125.766 1457.93 128.773 1457.93 132.464C1457.93 132.765 1457.93 133.093 1457.93 133.421V202.319C1457.93 225.285 1473.24 240.596 1496.21 240.596V202.319V133.421Z" fill="#F05423"/>
<path d="M1403.23 153.106H1378.62H1347.99C1347.67 153.106 1347.34 153.106 1347.04 153.106C1343.34 153.106 1340.34 156.169 1340.34 159.914C1340.34 160.242 1340.34 160.57 1340.34 160.898V229.66H1378.62V191.383H1403.23H1441.52C1441.52 168.417 1426.2 153.106 1403.23 153.106Z" fill="#F05423"/>
</g>
<defs>
<clipPath id="clip0_160_171">
<rect width="1688" height="257" fill="white"/>
</clipPath>
</defs>
</svg>
