<svg width="1224" height="156" viewBox="0 0 1224 156" fill="none" xmlns="http://www.w3.org/2000/svg">
<path d="M665.129 126.562C664.119 127.236 662.903 127.985 661.8 128.621L661.463 128.827L661.8 128.865C683.586 134.855 705.167 134.631 709.3 121.021C714.648 103.462 679.996 84.6115 663.633 75.626C660.136 73.6979 658.602 74.8959 660.846 77.4793C671.169 89.385 685.887 112.803 665.129 126.562Z" fill="#EF7D00"/>
<path d="M853.466 49.6012H835.06V34.1689H853.466V11.2832H871.31V34.1689H900.662V49.6012H871.31V96.0671C871.31 107.688 874.552 113.79 889.416 113.79C895.114 113.79 901.487 112.156 901.487 112.156V128.246C895.283 129.091 890.784 129.579 883.755 129.579C855.659 129.579 853.485 109.303 853.485 98.1698V49.6012H853.466ZM1108.7 34.075H1090.42V129.804H1108.7V34.075ZM1172.39 48.8314C1190.1 48.8314 1205.66 58.8944 1205.66 80.8601C1205.66 102.826 1191.97 113.809 1172.56 113.809C1162.4 113.809 1140.93 107.313 1140.93 81.2355C1140.93 55.1583 1162.32 48.8314 1172.37 48.8314H1172.39ZM1171.43 130.011C1194.24 130.011 1205.67 117.319 1205.67 117.319L1206.59 129.992H1223.31V34.075H1206.63L1205.69 45.9778C1205.69 45.9778 1194.58 32.8171 1171.66 32.8171C1151.47 32.8171 1122.42 45.0391 1122.42 81.0478C1122.42 117.057 1148.56 130.011 1171.45 130.011H1171.43ZM1111.51 11.9779C1111.51 5.36939 1106.17 0 1099.57 0C1092.97 0 1087.61 5.36939 1087.61 11.9779C1087.61 18.5864 1092.97 23.9557 1099.57 23.9557C1106.17 23.9557 1111.51 18.6051 1111.51 11.9779ZM1077.08 50.5399V34.3378C1059.04 32.6857 1046.37 37.0225 1036.5 47.3483L1035.54 34.1501H1018.22V129.954H1036.5V80.3156C1036.5 66.4603 1047.65 48.9065 1077.08 50.5587V50.5399ZM905.029 82.1555C905.029 111.368 927.24 130.217 959.46 130.217C974.961 130.217 989.431 126.331 1002.68 113.583L989.619 102.075C989.619 102.075 978.391 113.809 959.46 113.809C941.86 113.809 924.822 102.657 924.054 87.8628L1005.74 87.5061C1006.13 83.8076 1006.13 79.7524 1006.13 79.7524C1006.13 53.6939 985.982 32.2351 956.668 32.2351C927.353 32.2351 905.067 51.4598 905.067 81.4045V82.1367L905.029 82.1555ZM924.316 73.2002C925.46 59.9645 939.686 49.3383 956.893 49.3383C972.956 49.3383 986.039 60.1898 986.039 73.2002H924.316ZM795.942 72.7872C777.555 69.5017 759.467 67.1925 759.467 58.6128C759.467 53.0181 765.016 48.0992 781.116 48.0992C793.074 48.0992 806.888 50.8778 810.618 59.3637L827.581 52.2296C821.096 39.1816 801.903 32.8922 779.842 32.8922C760.555 32.8922 739.862 40.1953 739.862 59.758C739.862 76.6922 755.25 81.949 780.61 86.7363C797.554 89.9279 813.186 91.5425 813.186 100.704C813.186 106.487 805.501 113.884 786.271 113.884C772.607 113.884 758.83 111.011 754.613 101.267L738.175 108.176C744.922 123.233 762.804 131.006 783.534 131.006C824.92 131.006 832.923 111.274 832.923 100.085C832.923 81.442 814.405 76.0914 795.923 72.7872H795.942ZM300.908 81.2355C300.908 109.678 279.447 113.809 269.288 113.809C249.888 113.809 236.205 102.826 236.205 80.8601C236.205 58.8944 251.763 48.8314 269.475 48.8314C279.522 48.8314 300.908 52.7928 300.908 81.2355ZM319.464 81.0478C319.464 43.1241 290.412 32.8171 270.225 32.8171C247.302 32.8171 236.187 45.9778 236.187 45.9778L235.231 34.075H218.549V155.788H236.187V115.442C236.187 115.442 247.526 130.011 270.412 130.011C293.298 130.011 319.445 118.953 319.445 81.0478H319.464ZM438.204 48.8314C455.917 48.8314 471.474 58.8944 471.474 80.8601C471.474 102.826 457.791 113.809 438.391 113.809C428.214 113.809 406.771 107.313 406.771 81.2355C406.771 55.1583 428.157 48.8314 438.204 48.8314ZM437.248 130.011C460.059 130.011 471.492 117.319 471.492 117.319L472.486 129.992H489.13V34.075H472.43L471.492 45.9778C471.492 45.9778 460.378 32.8171 437.454 32.8171C417.268 32.8171 388.215 45.0391 388.215 81.0478C388.215 117.057 414.362 130.011 437.248 130.011ZM389.546 50.5211V34.3191C371.515 32.6669 358.844 37.0038 348.966 47.3295L348.029 34.1313H330.691V129.936H348.966V80.2968C348.966 66.4415 360.119 48.8878 389.546 50.5399V50.5211ZM57.7487 72.7684C39.3613 69.4829 21.2739 67.1737 21.2739 58.594C21.2739 52.9993 26.8219 48.0805 42.9226 48.0805C54.8809 48.0805 68.6949 50.859 72.4248 59.3449L89.3877 52.2108C82.9025 39.1628 63.7091 32.8734 41.648 32.8734C22.361 32.8734 1.66817 40.1766 1.66817 59.7392C1.66817 76.6734 17.0566 81.9302 42.4353 86.7176C59.3794 89.9092 75.0114 91.5237 75.0114 100.686C75.0114 106.468 67.3079 113.865 48.0958 113.865C34.4318 113.865 20.6366 110.992 16.438 101.249L0 108.158C6.72891 123.214 24.6289 130.987 45.3592 130.987C86.7449 130.987 94.7483 111.255 94.7483 100.066C94.7483 81.4233 76.2298 76.0727 57.7487 72.7684ZM208.802 81.029C208.802 116.681 182.768 130.536 155.44 130.536C128.112 130.536 102.077 116.681 102.077 81.029C102.077 45.377 130.998 32.7984 155.44 32.7984C179.881 32.7984 208.802 45.0203 208.802 81.029ZM190.228 81.2168C190.228 54.7265 168.279 49.3383 155.421 49.3383C142.563 49.3383 120.614 54.7265 120.614 81.2168C120.614 107.707 140.389 113.79 155.421 113.79C170.453 113.79 190.228 107.294 190.228 81.2168Z" fill="#1D1D1B"/>
<path d="M661.718 128.974C661.718 128.974 634.192 146.131 585.612 146.131C566.791 146.131 550.955 143.265 544.237 136.734C537.182 129.848 533.354 118.255 533.354 107.592C533.354 98.4544 537.182 90.7688 545.157 90.7688C565.647 90.7688 629.444 122.944 661.7 128.974H661.718Z" fill="#CF022B"/>
<path d="M569.912 28.7618C570.924 28.0859 572.142 27.335 573.248 26.6966L573.585 26.4901L573.248 26.4526C551.414 20.4449 529.787 20.6701 525.645 34.3189C520.285 51.929 555.012 70.8346 571.411 79.8461C574.915 81.7799 576.452 80.5783 574.203 77.9875C563.858 66.0472 549.109 42.5608 569.912 28.7618Z" fill="#EF7D00"/>
<path d="M573.585 26.4902C573.585 26.4902 601.078 9.18042 649.599 9.18042C668.396 9.18042 684.214 12.0716 690.905 18.6613C697.951 25.6078 701.774 37.304 701.774 48.0616C701.774 57.2797 697.951 65.0334 689.986 65.0334C669.521 65.0334 605.801 32.573 573.585 26.4902Z" fill="#CF022B"/>
</svg>
