<svg width="1224" height="157" viewBox="0 0 1224 157" fill="none" xmlns="http://www.w3.org/2000/svg">
<path d="M665.472 127.169C664.463 127.842 663.247 128.591 662.144 129.228L661.807 129.434L662.144 129.471C683.93 135.461 705.511 135.237 709.644 121.627C714.992 104.068 680.34 85.2177 663.976 76.2322C660.479 74.3041 658.946 75.5021 661.19 78.0855C671.513 89.9912 686.23 113.41 665.472 127.169Z" fill="#EF7D00"/>
<path d="M853.81 50.2074H835.404V34.7751H853.81V11.8894H871.653V34.7751H901.006V50.2074H871.653V96.6733C871.653 108.294 874.896 114.396 889.76 114.396C895.458 114.396 901.83 112.763 901.83 112.763V128.852C895.626 129.697 891.128 130.185 884.099 130.185C856.003 130.185 853.828 109.909 853.828 98.776V50.2074H853.81ZM1109.04 34.6812H1090.76V130.41H1109.04V34.6812ZM1172.73 49.4376C1190.44 49.4376 1206 59.5006 1206 81.4663C1206 103.432 1192.32 114.415 1172.9 114.415C1162.74 114.415 1141.28 107.919 1141.28 81.8417C1141.28 55.7645 1162.66 49.4376 1172.71 49.4376H1172.73ZM1171.77 130.617C1194.59 130.617 1206.02 117.926 1206.02 117.926L1206.94 130.598H1223.66V34.6812H1206.97L1206.04 46.584C1206.04 46.584 1194.92 33.4233 1172 33.4233C1151.81 33.4233 1122.76 45.6453 1122.76 81.654C1122.76 117.663 1148.91 130.617 1171.79 130.617H1171.77ZM1111.85 12.5841C1111.85 5.9756 1106.51 0.606201 1099.91 0.606201C1093.31 0.606201 1087.95 5.9756 1087.95 12.5841C1087.95 19.1926 1093.31 24.562 1099.91 24.562C1106.51 24.562 1111.85 19.2113 1111.85 12.5841ZM1077.42 51.1461V34.944C1059.39 33.2919 1046.72 37.6287 1036.84 47.9545L1035.88 34.7563H1018.57V130.561H1036.84V80.9218C1036.84 67.0665 1047.99 49.5127 1077.42 51.1649V51.1461ZM905.373 82.7617C905.373 111.974 927.584 130.823 959.804 130.823C975.305 130.823 989.775 126.937 1003.03 114.19L989.962 102.681C989.962 102.681 978.735 114.415 959.804 114.415C942.204 114.415 925.166 103.263 924.398 88.469L1006.08 88.1123C1006.48 84.4138 1006.48 80.3586 1006.48 80.3586C1006.48 54.3001 986.326 32.8413 957.011 32.8413C927.696 32.8413 905.41 52.066 905.41 82.0107V82.7429L905.373 82.7617ZM924.66 73.8064C925.803 60.5707 940.03 49.9445 957.236 49.9445C973.299 49.9445 986.382 60.796 986.382 73.8064H924.66ZM796.286 73.3934C777.899 70.1079 759.811 67.7987 759.811 59.219C759.811 53.6243 765.359 48.7054 781.46 48.7054C793.418 48.7054 807.232 51.484 810.962 59.9699L827.925 52.8358C821.44 39.7878 802.246 33.4984 780.185 33.4984C760.898 33.4984 740.205 40.8015 740.205 60.3642C740.205 77.2984 755.594 82.5552 780.954 87.3425C797.898 90.5341 813.53 92.1487 813.53 101.31C813.53 107.093 805.845 114.49 786.614 114.49C772.95 114.49 759.174 111.617 754.956 101.874L738.518 108.783C745.266 123.839 763.147 131.612 783.878 131.612C825.263 131.612 833.267 111.88 833.267 100.691C833.267 82.0483 814.748 76.6976 796.267 73.3934H796.286ZM301.252 81.8417C301.252 110.284 279.79 114.415 269.631 114.415C250.232 114.415 236.549 103.432 236.549 81.4663C236.549 59.5006 252.106 49.4376 269.819 49.4376C279.865 49.4376 301.252 53.399 301.252 81.8417ZM319.808 81.654C319.808 43.7303 290.755 33.4233 270.569 33.4233C247.645 33.4233 236.53 46.584 236.53 46.584L235.574 34.6812H218.893V156.394H236.53V116.048C236.53 116.048 247.87 130.617 270.756 130.617C293.642 130.617 319.789 119.559 319.789 81.654H319.808ZM438.548 49.4376C456.26 49.4376 471.817 59.5006 471.817 81.4663C471.817 103.432 458.135 114.415 438.735 114.415C428.557 114.415 407.115 107.919 407.115 81.8417C407.115 55.7645 428.501 49.4376 438.548 49.4376ZM437.592 130.617C460.403 130.617 471.836 117.926 471.836 117.926L472.829 130.598H489.474V34.6812H472.773L471.836 46.584C471.836 46.584 460.721 33.4233 437.798 33.4233C417.611 33.4233 388.559 45.6453 388.559 81.654C388.559 117.663 414.706 130.617 437.592 130.617ZM389.89 51.1273V34.9253C371.858 33.2731 359.188 37.61 349.31 47.9357L348.373 34.7375H331.035V130.542H349.31V80.903C349.31 67.0477 360.462 49.494 389.89 51.1461V51.1273ZM58.0923 73.3746C39.7049 70.0891 21.6175 67.7799 21.6175 59.2002C21.6175 53.6055 27.1656 48.6867 43.2662 48.6867C55.2246 48.6867 69.0385 51.4652 72.7685 59.9511L89.7313 52.817C83.2461 39.769 64.0527 33.4796 41.9917 33.4796C22.7046 33.4796 2.0118 40.7828 2.0118 60.3454C2.0118 77.2796 17.4002 82.5364 42.7789 87.3238C59.723 90.5154 75.3551 92.1299 75.3551 101.292C75.3551 107.074 67.6515 114.471 48.4394 114.471C34.7754 114.471 20.9802 111.599 16.7817 101.855L0.343628 108.764C7.07254 123.821 24.9726 131.593 45.7029 131.593C87.0885 131.593 95.092 111.862 95.092 100.672C95.092 82.0295 76.5734 76.6789 58.0923 73.3746ZM209.146 81.6352C209.146 117.287 183.111 131.143 155.783 131.143C128.455 131.143 102.421 117.287 102.421 81.6352C102.421 45.9832 131.342 33.4046 155.783 33.4046C180.225 33.4046 209.146 45.6265 209.146 81.6352ZM190.571 81.823C190.571 55.3327 168.623 49.9445 155.765 49.9445C142.907 49.9445 120.958 55.3327 120.958 81.823C120.958 108.313 140.732 114.396 155.765 114.396C170.797 114.396 190.571 107.9 190.571 81.823Z" fill="#1D1D1B"/>
<path d="M662.062 129.58C662.062 129.58 634.535 146.737 585.955 146.737C567.135 146.737 551.298 143.872 544.581 137.34C537.526 130.454 533.698 118.861 533.698 108.198C533.698 99.0606 537.526 91.375 545.5 91.375C565.991 91.375 629.788 123.55 662.043 129.58H662.062Z" fill="#CF022B"/>
<path d="M570.255 29.368C571.267 28.6921 572.485 27.9412 573.591 27.3028L573.928 27.0963L573.591 27.0588C551.758 21.0511 530.13 21.2763 525.989 34.9251C520.629 52.5352 555.356 71.4408 571.754 80.4523C575.259 82.3861 576.796 81.1845 574.547 78.5937C564.202 66.6534 549.452 43.167 570.255 29.368Z" fill="#EF7D00"/>
<path d="M573.928 27.0964C573.928 27.0964 601.422 9.78662 649.942 9.78662C668.74 9.78662 684.557 12.6778 691.248 19.2675C698.295 26.214 702.118 37.9102 702.118 48.6678C702.118 57.8859 698.295 65.6396 690.33 65.6396C669.864 65.6396 606.144 33.1792 573.928 27.0964Z" fill="#CF022B"/>
</svg>
