<?xml version="1.0" encoding="UTF-8"?><svg id="a" xmlns="http://www.w3.org/2000/svg" viewBox="0 0 753.75 187.5"><defs><style>.b{fill:#ef7d00;}.c{fill:#cf022b;}.d{fill:#1d1d1b;}</style></defs><path class="b" d="M405.44,119.83c-.54,.36-1.19,.76-1.78,1.1l-.18,.11,.18,.02c11.65,3.2,23.19,3.08,25.4-4.19,2.86-9.38-15.67-19.45-24.42-24.25-1.87-1.03-2.69-.39-1.49,.99,5.52,6.36,13.39,18.87,2.29,26.22Z"/><path class="d" d="M505.88,78.68h-9.82v-8.22h9.82v-12.19h9.52v12.19h15.66v8.22h-15.66v24.75c0,6.19,1.73,9.44,9.66,9.44,3.04,0,6.44-.87,6.44-.87v8.57c-3.31,.45-5.71,.71-9.46,.71-14.99,0-16.15-10.8-16.15-16.73v-25.87Zm136.17-8.27h-9.75v50.99h9.75v-50.99Zm33.98,7.86c9.45,0,17.75,5.36,17.75,17.06s-7.3,17.55-17.66,17.55c-5.42,0-16.87-3.46-16.87-17.35s11.41-17.26,16.77-17.26Zm-.51,43.24c12.17,0,18.27-6.76,18.27-6.76l.49,6.75h8.92v-51.09h-8.9l-.5,6.34s-5.93-7.01-18.16-7.01c-10.77,0-26.27,6.51-26.27,25.69s13.95,26.08,26.16,26.08Zm-31.97-62.87c0-3.52-2.85-6.38-6.37-6.38s-6.38,2.86-6.38,6.38,2.86,6.38,6.38,6.38,6.37-2.85,6.37-6.38Zm-18.37,20.54v-8.63c-9.62-.88-16.38,1.43-21.65,6.93l-.51-7.03h-9.24v51.03h9.75v-26.44c0-7.38,5.95-16.73,21.65-15.85Zm-91.79,16.84c0,15.56,11.85,25.6,29.04,25.6,8.27,0,15.99-2.07,23.06-8.86l-6.97-6.13s-5.99,6.25-16.09,6.25c-9.39,0-18.48-5.94-18.89-13.82l43.58-.19c.21-1.97,.21-4.13,.21-4.13,0-13.88-10.75-25.31-26.39-25.31s-27.53,10.24-27.53,26.19v.39Zm10.29-4.77c.61-7.05,8.2-12.71,17.38-12.71,8.57,0,15.55,5.78,15.55,12.71h-32.93Zm-68.49-.22c-9.81-1.75-19.46-2.98-19.46-7.55,0-2.98,2.96-5.6,11.55-5.6,6.38,0,13.75,1.48,15.74,6l9.05-3.8c-3.46-6.95-13.7-10.3-25.47-10.3-10.29,0-21.33,3.89-21.33,14.31,0,9.02,8.21,11.82,21.74,14.37,9.04,1.7,17.38,2.56,17.38,7.44,0,3.08-4.1,7.02-14.36,7.02-7.29,0-14.64-1.53-16.89-6.72l-8.77,3.68c3.6,8.02,13.14,12.16,24.2,12.16,22.08,0,26.35-10.51,26.35-16.47,0-9.93-9.88-12.78-19.74-14.54Zm-264.11,4.5c0,15.15-11.45,17.35-16.87,17.35-10.35,0-17.65-5.85-17.65-17.55s8.3-17.06,17.75-17.06c5.36,0,16.77,2.11,16.77,17.26Zm9.9-.1c0-20.2-15.5-25.69-26.27-25.69-12.23,0-18.16,7.01-18.16,7.01l-.51-6.34h-8.9v64.83h9.41v-21.49s6.05,7.76,18.26,7.76,26.16-5.89,26.16-26.08Zm63.35-17.16c9.45,0,17.75,5.36,17.75,17.06s-7.3,17.55-17.65,17.55c-5.43,0-16.87-3.46-16.87-17.35s11.41-17.26,16.77-17.26Zm-.51,43.24c12.17,0,18.27-6.76,18.27-6.76l.53,6.75h8.88v-51.09h-8.91l-.5,6.34s-5.93-7.01-18.16-7.01c-10.77,0-26.27,6.51-26.27,25.69s13.95,26.08,26.16,26.08Zm-25.45-42.34v-8.63c-9.62-.88-16.38,1.43-21.65,6.93l-.5-7.03h-9.25v51.03h9.75v-26.44c0-7.38,5.95-16.73,21.65-15.85Zm-177.02,11.85c-9.81-1.75-19.46-2.98-19.46-7.55,0-2.98,2.96-5.6,11.55-5.6,6.38,0,13.75,1.48,15.74,6l9.05-3.8c-3.46-6.95-13.7-10.3-25.47-10.3-10.29,0-21.33,3.89-21.33,14.31,0,9.02,8.21,11.82,21.75,14.37,9.04,1.7,17.38,2.56,17.38,7.44,0,3.08-4.11,7.02-14.36,7.02-7.29,0-14.65-1.53-16.89-6.72l-8.77,3.68c3.59,8.02,13.14,12.16,24.2,12.16,22.08,0,26.35-10.51,26.35-16.47,0-9.93-9.88-12.78-19.74-14.54Zm80.59,4.4c0,18.99-13.89,26.37-28.47,26.37s-28.47-7.38-28.47-26.37,15.43-25.69,28.47-25.69,28.47,6.51,28.47,25.69Zm-9.91,.1c0-14.11-11.71-16.98-18.57-16.98s-18.57,2.87-18.57,16.98,10.55,17.35,18.57,17.35,18.57-3.46,18.57-17.35Z"/><path class="c" d="M403.49,121.04s-14.67,9.22-40.56,9.22c-10.03,0-18.47-1.54-22.05-5.05-3.76-3.7-5.8-9.93-5.8-15.66,0-4.91,2.04-9.04,6.29-9.04,10.92,0,44.92,17.29,62.11,20.53Z"/><g><path class="b" d="M354.6,67.58c.54-.36,1.19-.76,1.78-1.1l.18-.11-.18-.02c-11.65-3.2-23.19-3.08-25.4,4.19-2.86,9.38,15.67,19.45,24.42,24.25,1.87,1.03,2.69,.39,1.49-.99-5.52-6.36-13.39-18.87-2.29-26.22Z"/><path class="c" d="M356.56,66.37s14.67-9.22,40.56-9.22c10.03,0,18.47,1.54,22.04,5.05,3.76,3.7,5.8,9.93,5.8,15.66,0,4.91-2.04,9.04-6.29,9.04-10.92,0-44.92-17.29-62.11-20.53Z"/></g></svg>