<svg width="1004" height="323" viewBox="0 0 1004 323" fill="none" xmlns="http://www.w3.org/2000/svg">
<g clip-path="url(#clip0_138_170)">
<mask id="mask0_138_170" style="mask-type:luminance" maskUnits="userSpaceOnUse" x="0" y="0" width="1004" height="323">
<path d="M0 0H1004V323H0V0Z" fill="white"/>
</mask>
<g mask="url(#mask0_138_170)">
<path fill-rule="evenodd" clip-rule="evenodd" d="M134.747 5.1048L269.486 84.3592V242.334L134.74 321.596L0 242.334V84.3592L134.747 5.1048ZM22.2354 229.716V182.741L123.618 242.341V289.352L22.2354 229.716ZM123.618 216.642L22.2354 157.034V110.059L123.618 169.666V216.642ZM145.861 289.352V169.666L185.459 146.389V266.054L145.861 289.352ZM207.695 252.979L247.251 229.716V110.066L207.695 133.315V252.993V252.979ZM174.731 54.3342L134.747 30.8114L32.9635 90.6787L72.9339 114.173L174.731 54.3342ZM196.58 67.184L94.7973 127.023L134.747 150.511L236.523 90.6787L196.573 67.184H196.58Z" fill="#2B2B2B"/>
<path d="M404.689 232.883C394.354 232.896 384.068 231.469 374.127 228.642C364.185 225.819 356.244 222.245 350.312 217.92L361.861 194.228C367.632 198.217 374.527 201.461 382.552 203.953C390.369 206.228 398.465 207.402 406.606 207.443C424.572 207.443 433.552 202.542 433.552 192.733C433.552 188.077 431.228 184.833 426.58 183.008C422.087 181.182 414.785 179.426 404.682 177.769C394.101 176.105 385.437 174.188 378.704 172.033C372.061 169.831 366.093 165.963 361.37 160.798C356.56 155.321 354.152 147.751 354.152 138.104C354.152 125.464 359.207 115.409 369.31 107.924C379.575 100.277 393.371 96.4576 410.692 96.4576C419.51 96.4576 428.336 97.539 437.161 99.6946C445.979 101.696 453.197 104.434 458.807 107.924L447.257 131.622C436.354 124.973 424.088 121.652 410.453 121.652C401.628 121.652 394.895 123.056 390.24 125.886C385.746 128.547 383.5 132.121 383.5 136.608C383.5 141.593 385.915 145.174 390.724 147.33C395.695 149.331 403.313 151.241 413.578 153.067C423.842 154.731 432.267 156.648 438.839 158.804C445.326 160.907 451.138 164.694 455.682 169.779C460.492 174.933 462.9 182.249 462.9 191.729C462.9 204.199 457.683 214.17 447.264 221.655C436.838 229.133 422.642 232.876 404.675 232.876L404.689 232.883ZM560.976 223.909C557.451 226.9 553.12 229.147 547.987 230.643C542.834 232.166 537.486 232.923 532.113 232.89C518.001 232.89 507.09 229.063 499.395 221.409C491.693 213.763 487.838 202.626 487.838 187.993V68.5322H517.916V98.9574H552.319V123.899H517.916V187.242C517.916 193.73 519.44 198.715 522.48 202.212C525.696 205.533 530.105 207.197 535.715 207.197C542.455 207.197 548.071 205.372 552.565 201.713L560.976 223.902V223.909ZM707.195 97.9532V231.142H678.563V213.931C673.698 220.166 667.324 225.058 660.042 228.143C652.824 231.303 644.807 232.883 635.981 232.883C623.477 232.883 612.25 230.06 602.302 224.408C592.514 218.755 584.819 210.772 579.202 200.464C573.747 190.156 571.023 178.184 571.023 164.547C571.023 150.911 573.747 139.023 579.202 128.884C584.819 118.576 592.514 110.592 602.302 104.94C612.243 99.2874 623.477 96.4646 635.981 96.4646C644.322 96.4646 651.94 97.9603 658.841 100.959C665.854 103.921 672.103 108.437 677.117 114.166V97.9603H707.195V97.9532ZM639.351 206.2C650.416 206.2 659.565 202.374 666.775 194.727C673.993 187.073 677.609 177.018 677.609 164.547C677.609 152.077 673.993 142.022 666.775 134.375C659.565 126.721 650.416 122.901 639.351 122.901C628.279 122.901 619.138 126.721 611.92 134.375C604.871 142.022 601.34 152.077 601.34 164.547C601.34 177.018 604.871 187.08 611.92 194.727C619.138 202.381 628.279 206.2 639.344 206.2H639.351ZM805.482 232.883C792.177 232.883 780.227 229.976 769.64 224.155C759.285 218.562 750.702 210.183 744.863 199.965C738.923 189.489 735.96 177.685 735.96 164.547C735.96 151.417 738.923 139.69 744.863 129.383C750.654 119.212 759.144 110.84 769.394 105.193C779.988 99.3716 792.015 96.4646 805.482 96.4646C818.162 96.4646 829.22 99.1259 838.684 104.441C848.156 109.596 855.74 117.633 860.337 127.388L837.245 141.355C833.559 135.204 828.904 130.632 823.294 127.634C817.811 124.471 811.58 122.837 805.25 122.901C794.023 122.901 784.714 126.721 777.335 134.375C769.955 141.853 766.269 151.915 766.269 164.547C766.269 177.187 769.878 187.326 777.103 194.973C784.482 202.458 793.862 206.2 805.25 206.2C811.55 206.269 817.762 204.722 823.294 201.706C828.904 198.547 833.559 193.891 837.245 187.74L860.337 201.713C855.559 211.485 847.924 219.574 838.445 224.906C828.988 230.222 817.993 232.883 805.482 232.883ZM943.402 232.883C930.09 232.883 918.14 229.976 907.56 224.155C897.202 218.564 888.616 210.185 882.776 199.965C876.836 189.489 873.866 177.685 873.866 164.547C873.866 151.417 876.836 139.69 882.776 129.383C888.57 119.212 897.062 110.84 907.314 105.193C917.895 99.3716 929.928 96.4646 943.402 96.4646C956.075 96.4646 967.14 99.1259 976.604 104.441C986.071 109.602 993.654 117.637 998.257 127.388L975.158 141.355C971.465 135.204 966.817 130.632 961.2 127.634C955.718 124.468 949.486 122.834 943.156 122.901C931.929 122.901 922.634 126.721 915.255 134.375C907.876 141.853 904.19 151.915 904.19 164.547C904.19 177.187 907.791 187.326 915.009 194.973C922.388 202.458 931.775 206.2 943.156 206.2C949.456 206.269 955.668 204.722 961.2 201.706C966.817 198.547 971.465 193.891 975.158 187.74L998.257 201.713C993.477 211.484 985.843 219.572 976.365 224.906C966.894 230.222 955.913 232.883 943.402 232.883Z" fill="#2B2B2B"/>
</g>
</g>
<defs>
<clipPath id="clip0_138_170">
<rect width="1004" height="323" fill="white"/>
</clipPath>
</defs>
</svg>
