<svg width="1037" height="335" viewBox="0 0 1037 335" fill="none" xmlns="http://www.w3.org/2000/svg">
<path fill-rule="evenodd" clip-rule="evenodd" d="M165.375 18.2727L294.151 93.8932V244.633L165.375 320.253L36.6001 244.633V93.8932L165.375 18.2727ZM57.8488 232.588V187.762L154.749 244.636V289.491L57.8488 232.588ZM154.749 220.116L57.8488 163.242V118.415L154.749 175.29V220.116ZM175.998 289.493V175.294L213.844 153.08V267.268L175.998 289.493ZM235.093 254.791L272.902 232.588V118.418L235.093 140.609V254.791ZM203.591 65.2367L165.375 42.7954L68.1054 99.9152L106.306 122.336L203.591 65.2367ZM224.473 77.4995L127.195 134.596L165.378 157.007L262.647 99.9165L224.473 77.4995Z" fill="#AD362B"/>
<path d="M427.022 235.614C417.058 235.614 407.325 234.265 397.821 231.568C388.317 228.871 380.729 225.46 375.058 221.336L386.094 198.728C391.613 202.536 398.204 205.63 405.869 208.009C413.686 210.23 421.35 211.341 428.861 211.341C446.03 211.341 454.614 206.661 454.614 197.3C454.614 192.858 452.391 189.765 447.946 188.02C443.654 186.275 436.679 184.609 427.022 183.022C416.905 181.435 408.628 179.611 402.19 177.549C395.905 175.486 390.387 171.916 385.635 166.84C381.036 161.605 378.737 154.386 378.737 145.184C378.737 133.127 383.565 123.528 393.222 116.389C403.033 109.092 416.215 105.443 432.77 105.443C441.201 105.443 449.632 106.474 458.063 108.536C466.493 110.44 473.391 113.058 478.756 116.389L467.72 138.997C457.296 132.651 445.57 129.478 432.54 129.478C424.109 129.478 417.671 130.827 413.226 133.524C408.934 136.062 406.788 139.473 406.788 143.756C406.788 148.516 409.088 151.927 413.686 153.989C418.438 155.893 425.719 157.717 435.529 159.462C445.34 161.049 453.387 162.874 459.672 164.936C465.957 166.999 471.322 170.489 475.767 175.407C480.365 180.325 482.665 187.306 482.665 196.348C482.665 208.247 477.683 217.766 467.72 224.906C457.756 232.045 444.19 235.614 427.022 235.614Z" fill="#2D2C2C"/>
<path d="M576.395 227.048C573.023 229.903 568.884 232.045 563.979 233.473C559.227 234.901 554.169 235.615 548.804 235.615C535.315 235.615 524.891 231.966 517.533 224.668C510.175 217.37 506.497 206.741 506.497 192.78V78.7908H535.238V107.823H568.118V131.62H535.238V192.066C535.238 198.253 536.694 203.012 539.607 206.344C542.673 209.517 546.888 211.104 552.253 211.104C558.691 211.104 564.056 209.359 568.348 205.868L576.395 227.048Z" fill="#2D2C2C"/>
<path d="M716.134 106.87V233.948H688.77V217.528C684.018 223.557 678.119 228.078 671.067 231.093C664.168 234.107 656.507 235.614 648.076 235.614C636.12 235.614 625.39 232.917 615.887 227.523C606.534 222.129 599.176 214.514 593.811 204.678C588.6 194.841 585.994 183.419 585.994 170.41C585.994 157.4 588.6 146.057 593.811 136.379C599.176 126.543 606.534 118.928 615.887 113.534C625.39 108.14 636.12 105.443 648.076 105.443C656.043 105.443 663.326 106.87 669.92 109.726C676.661 112.582 682.486 116.786 687.391 122.339V106.87H716.134ZM651.291 210.151C661.868 210.151 670.61 206.502 677.503 199.204C684.402 191.906 687.855 182.308 687.855 170.41C687.855 158.511 684.402 148.912 677.503 141.615C670.61 134.317 661.868 130.668 651.291 130.668C640.714 130.668 631.979 134.317 625.079 141.615C618.339 148.912 614.966 158.511 614.966 170.41C614.966 182.308 618.339 191.906 625.079 199.204C631.979 206.502 640.714 210.151 651.291 210.151Z" fill="#2D2C2C"/>
<path d="M810.068 235.614C797.349 235.614 785.93 232.838 775.81 227.285C765.697 221.732 757.797 214.038 752.13 204.201C746.457 194.207 743.621 182.943 743.621 170.41C743.621 157.876 746.457 146.692 752.13 136.855C757.797 127.019 765.617 119.325 775.578 113.772C785.698 108.219 797.197 105.443 810.068 105.443C822.183 105.443 832.754 107.981 841.8 113.058C850.999 118.135 857.898 125.433 862.491 134.951L840.422 148.278C836.896 142.408 832.449 138.045 827.087 135.19C821.871 132.175 816.125 130.668 809.842 130.668C799.112 130.668 790.219 134.317 783.167 141.615C776.115 148.754 772.59 158.352 772.59 170.41C772.59 182.467 776.042 192.144 782.941 199.442C789.993 206.581 798.96 210.151 809.842 210.151C816.125 210.151 821.871 208.723 827.087 205.867C832.449 202.853 836.896 198.411 840.422 192.541L862.491 205.867C857.739 215.386 850.767 222.763 841.568 227.999C832.528 233.076 822.024 235.614 810.068 235.614Z" fill="#2D2C2C"/>
<path d="M941.877 235.614C929.152 235.614 917.733 232.838 907.619 227.285C897.499 221.732 889.606 214.038 883.933 204.201C878.26 194.207 875.423 182.943 875.423 170.41C875.423 157.876 878.26 146.692 883.933 136.855C889.606 127.019 897.42 119.325 907.387 113.772C917.501 108.219 929 105.443 941.877 105.443C953.985 105.443 964.563 107.981 973.609 113.058C982.802 118.135 989.701 125.433 994.3 134.951L972.224 148.278C968.698 142.408 964.258 138.045 958.89 135.19C953.68 132.175 947.928 130.668 941.645 130.668C930.915 130.668 922.027 134.317 914.976 141.615C907.924 148.754 904.398 158.352 904.398 170.41C904.398 182.467 907.845 192.144 914.744 199.442C921.796 206.581 930.763 210.151 941.645 210.151C947.928 210.151 953.68 208.723 958.89 205.867C964.258 202.853 968.698 198.411 972.224 192.541L994.3 205.867C989.548 215.386 982.576 222.763 973.377 227.999C964.331 233.076 953.833 235.614 941.877 235.614Z" fill="#2D2C2C"/>
</svg>
