<svg width="1238" height="209" viewBox="0 0 1238 209" fill="none" xmlns="http://www.w3.org/2000/svg">
<rect x="0.5" y="0.5" width="1237" height="208" />
<path d="M119.325 59.7143V0H59.6627V29.8571H29.8313V59.7143H0V119.429H59.6627V59.7143H119.325Z" fill="#24036C"/>
<path d="M104.41 179.143C112.647 179.143 119.325 172.459 119.325 164.214C119.325 155.969 112.647 149.286 104.41 149.286C96.172 149.286 89.494 155.969 89.494 164.214C89.494 172.459 96.172 179.143 104.41 179.143Z" fill="#24036C"/>
<path d="M134.241 179.143C142.479 179.143 149.157 172.459 149.157 164.214C149.157 155.969 142.479 149.286 134.241 149.286C126.003 149.286 119.325 155.969 119.325 164.214C119.325 172.459 126.003 179.143 134.241 179.143Z" fill="#24036C"/>
<path d="M164.072 177.277C171.28 177.277 177.124 171.429 177.124 164.214C177.124 157 171.28 151.152 164.072 151.152C156.864 151.152 151.021 157 151.021 164.214C151.021 171.429 156.864 177.277 164.072 177.277Z" fill="#24036C"/>
<path d="M104.41 207.134C111.618 207.134 117.461 201.286 117.461 194.071C117.461 186.857 111.618 181.009 104.41 181.009C97.2017 181.009 91.3585 186.857 91.3585 194.071C91.3585 201.286 97.2017 207.134 104.41 207.134Z" fill="#24036C"/>
<path d="M134.241 205.268C140.419 205.268 145.428 200.255 145.428 194.071C145.428 187.888 140.419 182.875 134.241 182.875C128.063 182.875 123.054 187.888 123.054 194.071C123.054 200.255 128.063 205.268 134.241 205.268Z" fill="#24036C"/>
<path d="M164.072 119.429C172.31 119.429 178.988 112.745 178.988 104.5C178.988 96.2552 172.31 89.5714 164.072 89.5714C155.835 89.5714 149.157 96.2552 149.157 104.5C149.157 112.745 155.835 119.429 164.072 119.429Z" fill="#24036C"/>
<path d="M193.904 117.562C201.112 117.562 206.955 111.714 206.955 104.5C206.955 97.2858 201.112 91.4375 193.904 91.4375C186.696 91.4375 180.852 97.2858 180.852 104.5C180.852 111.714 186.696 117.562 193.904 117.562Z" fill="#24036C"/>
<path d="M164.072 149.286C172.31 149.286 178.988 142.602 178.988 134.357C178.988 126.112 172.31 119.429 164.072 119.429C155.835 119.429 149.157 126.112 149.157 134.357C149.157 142.602 155.835 149.286 164.072 149.286Z" fill="#24036C"/>
<path d="M193.904 145.554C200.082 145.554 205.09 140.541 205.09 134.357C205.09 128.174 200.082 123.161 193.904 123.161C187.725 123.161 182.717 128.174 182.717 134.357C182.717 140.541 187.725 145.554 193.904 145.554Z" fill="#24036C"/>
<path d="M1016.13 44.7857L997.485 134.357H975.111L956.467 44.7857H930.365C930.365 44.7857 946.846 108.232 952.738 130.625C957.66 149.286 967.84 158.728 986.298 158.728C1004.76 158.728 1014.27 153.13 1019.86 130.737C1025.45 108.344 1042.23 44.8977 1042.23 44.8977L1016.13 44.7857Z" fill="#24036C"/>
<path d="M417.639 36.3884C426.391 36.3884 433.486 29.2869 433.486 20.5268C433.486 11.7666 426.391 4.66516 417.639 4.66516C408.886 4.66516 401.791 11.7666 401.791 20.5268C401.791 29.2869 408.886 36.3884 417.639 36.3884Z" fill="#24036C"/>
<path d="M331.873 67.1786H361.705V44.7857H331.873V0H309.5V44.7857H283.398V67.1786H309.5V100.768C309.5 134.357 326.28 156.75 363.569 156.75H372.892V134.357H331.873V67.1786ZM440.012 98.9018C440.012 64.3795 417.639 44.7857 384.078 44.7857V67.1786H417.639V134.357H395.265V156.75H462.386V134.357H440.012V98.9018ZM1073.93 67.1786H1107.49V44.7857C1075.79 44.7857 1051.55 65.2752 1051.55 97.0357V134.357H1036.64V156.75H1114.95V134.357H1073.93V67.1786ZM1211.9 44.7857L1195.12 134.357H1167.15L1150.37 44.7857H1124.27L1144.78 126.893C1148.51 141.821 1155.96 158.616 1174.61 158.616H1185.8V182.875H1144.78V205.268H1152.23C1164.72 205.301 1176.88 201.334 1186.95 193.946C1197.01 186.558 1204.45 176.139 1208.17 164.214C1213.46 143.09 1238 44.7857 1238 44.7857H1211.9ZM870.702 42.9196C838.782 42.9196 812.904 66.9546 812.904 98.9018C812.877 113.932 818.704 128.381 829.147 139.181C839.59 149.982 853.828 156.284 868.837 156.75H917.313V134.357H839.006V111.964H928.5V98.9018C928.5 66.9546 902.621 42.9196 870.702 42.9196ZM902.398 89.5714H839.006V67.1786H902.398V89.5714ZM630.187 67.1786H667.476V44.7857H630.187V0H607.813V44.7857H581.711V67.1786H607.813V102.634C607.813 136.223 624.593 156.75 661.883 156.75H678.663V134.357H630.187V67.1786ZM742.054 42.9196C734.417 42.7462 726.823 44.1239 719.732 46.9697C712.642 49.8154 706.201 54.0701 700.799 59.4768C695.397 64.8834 691.146 71.3299 688.303 78.4267C685.459 85.5236 684.083 93.1237 684.256 100.768C684.256 116.11 690.345 130.824 701.185 141.673C712.024 152.521 726.725 158.616 742.054 158.616C757.383 158.616 772.084 152.521 782.924 141.673C793.763 130.824 799.852 116.11 799.852 100.768C800.026 93.1237 798.649 85.5236 795.806 78.4267C792.963 71.3299 788.712 64.8834 783.31 59.4768C777.908 54.0701 771.467 49.8154 764.376 46.9697C757.285 44.1239 749.692 42.7462 742.054 42.9196ZM775.614 134.357H708.494V67.1786H775.614V134.357ZM520.184 42.9196C488.264 42.9196 462.386 66.9546 462.386 98.9018C462.359 113.932 468.186 128.381 478.629 139.181C489.072 149.982 503.309 156.284 518.319 156.75H566.795V134.357H488.488V111.964H577.982V98.9018C577.982 66.9546 552.103 42.9196 520.184 42.9196ZM551.88 89.5714H488.488V67.1786H551.88V89.5714Z" fill="#24036C"/>
</svg>
